<?xml version="1.0" encoding="UTF-8"?>
<svg id="Layer_1" data-name="Layer 1" xmlns="http://www.w3.org/2000/svg" xmlns:xlink="http://www.w3.org/1999/xlink" viewBox="0 0 164.53 96.19">
  <defs>
    <style>
      .cls-1 {
        fill: url(#linear-gradient);
      }

      .cls-2 {
        fill: #fff;
      }

      .cls-3 {
        fill: url(#linear-gradient-2);
        stroke: url(#linear-gradient-3);
        stroke-miterlimit: 10;
        stroke-width: .28px;
      }
    </style>
    <linearGradient id="linear-gradient" x1="13.54" y1="22.24" x2="57.85" y2="98.97" gradientTransform="translate(1.16 -2.02) rotate(1.54)" gradientUnits="userSpaceOnUse">
      <stop offset=".51" stop-color="#fff"/>
      <stop offset=".66" stop-color="#fff"/>
      <stop offset="1" stop-color="#999"/>
    </linearGradient>
    <linearGradient id="linear-gradient-2" x1="95.95" y1="63.74" x2="164.83" y2="63.74" gradientTransform="translate(1.16 -2.02) rotate(1.54)" gradientUnits="userSpaceOnUse">
      <stop offset="0" stop-color="#606060"/>
      <stop offset=".3" stop-color="#fff"/>
    </linearGradient>
    <linearGradient id="linear-gradient-3" x1="95.81" y1="63.73" x2="164.97" y2="63.73" gradientTransform="translate(1.16 -2.02) rotate(1.54)" gradientUnits="userSpaceOnUse">
      <stop offset="0" stop-color="#000" stop-opacity=".2"/>
      <stop offset="1" stop-color="#fff"/>
    </linearGradient>
  </defs>
  <path class="cls-2" d="M106.21,73.94c-.17,0-.34,0-.76-.28-.75-.62-1.93-1.68-2.59-2.47l-.17-.18c-2.82-3.5-3.68-9.87-3.94-15.88-.16-3.6-.15-7.12-.17-9.77-.24-10.38-.13-20.74-1.48-31.06-.56-4.56-1.55-9.13-2.64-13.53,0-.17-.16-.43-.24-.52-.08-.17-.59-.36-.68-.19-.19.59-.55,1.19-.74,1.87-.19.68-.48,1.79-.58,2.47-.78,3.49.26,6.26.68,9.7,1.71,12.9,1.79,25.84,1.53,38.86-.09,3.34.08,6.77-.19,10.11-.03,1.28-.24,2.74-.79,3.84,0,.17-.18.34-.27.51-.54,1.01-1.59,1.84-2.81,2.5-2.61,1.39-6.13,1.81-7.97.04-1-.97-1.72-3.05-1.68-4.42s.39-1.87.41-2.39-.41-.7-.67-.7c-.78.15-1.3.57-1.83,1.07-2.63,2.33-5.2,5.43-8.41,6.89-3.73,1.79-10.21,3.67-12.75-.77-2.05-3.48-1.93-11.02-1.99-15.14.03-1.28-.02-2.49-.07-3.77l-.19,7.19c-.26,9.76-.3,11.05.43,12.87.32.87,2.01,5.11,6.41,7.03,1.95.82,3.75.96,4.86.9,3.12-1.2,5.84-3.53,8.13-5.95.62-.67,1.51-2.02,2.21-2.34s.43-.16.69-.24c.17,0,.25.35.33.52.3,1.64.26,3.09,1.25,4.66,2.46,4.01,7.61,3.72,11.19,1.33.78-.49,1.49-1.16,2.11-1.83,2.12-2.51,2.09-4.49,2.94-7.46,0-.09.01-.43.19-.51h0v.17h0c.31,1.21,1.43,4.32,4.55,5.95,1.78.9,4.25,1.4,5.64.75h0c0-.09,0,.17,0,.17h.09Z"/>
  <path class="cls-1" d="M58.92,86.13c0-.26.46-1.1.63-1.27.53-.76,1.07-1.51,1.69-2.35h0c.62-.84,1.24-1.59,1.78-2.44,0-.17.09-.25.18-.34,1.37-.13,2.58-.44,3.79-.84-1.11-.03-2.91-.08-4.86-.9-4.41-1.92-6.09-6.16-6.41-7.03-.72-1.82-.78-3.02-.43-12.87l.2-7.37c-.08-6.77-.06-13.63-.31-20.41-.35-9.44-1.21-18.89-3.62-27.86-.07-.43-.14-1.29-.39-1.55-.34-.27-.68-.19-.78.15-.46,1.02-.58,2.38-.78,3.49-.3,1.53-.75,2.47-.54,4.1.07.69.31,1.38.37,2.15.85,6.62,1.53,13.32,1.86,20.1.28,5.49.48,10.98.42,16.47l-.33,12.42c-.05,1.88-.11,3.94-.33,5.73-.01.43-.19.85-.38,1.28-.46,1.19-1.35,2.28-2.23,3.2-3.18,3.34-7.11,6.15-10.94,8.62-4.71,3.13-10.46,6.4-16.24,7.79h0c-1.9.46-3.88.75-5.76.7-3.77-.1-6.74-1.04-8.84-2.64q-.62-.47,0,0c-4.45-3.46-5.65-9.92-4.6-16.84.02-.86.88-4,1.32-4.59.44-.59.6-.07,1.11.03.85.28,1.98-.38,2.51-1.05.71-.84,1.63-3.3,1.92-4.49.01-.51.29-1.11-.22-1.46-.54.93-1.8,3.04-3.08,2.92-.6-.02-1.26-.89-1.42-1.41-.79-2.59.51-6.24,1.26-8.71.38-1.28.67-2.55,1.21-3.74.18-.34.28-.76.03-1.11-.35.16-.19.68-.28.94,0,.09-.35.16-.53.41-.18.34-.45.93-.63,1.27-1.45,3.05-3.59,9.07-3.33,12.42-.03,1.11.64,1.73.43,3.01-.01.43-.36.68-.45.93-2.05,5.94-2.7,14.41-.9,20.63,0,.26.16.6.23.86,3.73,10.98,14.26,11.35,23.62,7.49,2.69-1.13,5.47-2.51,8.17-4.15h0c5.31-3.11,10.56-7.09,14.69-11,4.13-3.92,3.28-4.11,4.33-8.11.19-.59.21-1.28.39-1.87.58.7.29,1.81.44,2.67.07.6.14,1.12.3,1.64.54,2.41,1.42,4.49,2.84,5.99l-2.95,4.55.75.79,3.71,2.41h0l.67.45c.08.09.16.35.16.6v.34c-.01.09-.27.16-.36.33-.72,1.18-1.43,2.36-2.15,3.46-.27.42-1.15,1.51-1.16,1.85-.02.69.41.61.75.88,1.34.98,2.69,2.04,4.12,2.94,0,0,.67.45.76.45.26,0,.61-.24.7-.41.53-.76,1.08-1.77,1.61-2.61.72-1.09,1.6-2.1,1.98-3.38l-5.38-3.74h-.34s0,.08,0,.08Z"/>
  <path class="cls-3" d="M163.68,59.03c-9.9-.79-19.01-3.75-28.43-6.51,0-.21.12-.41.23-.62.45-1.35.8-2.59,1.26-4.04.23-.72.88-1.54-.26-2.1-1.03-.45-2.38-.79-3.42-1.14-1.35-.45-2.58-1.11-3.93-1.46l-.66,1.24c-.45,1.03-.69,2.49-.93,3.52,0,.31-.45,1.35-.68,1.97-3.73-.94-7.58-1.46-10.53-.7-3.37.95-5.61,2.88-7.03,5.34-1.75,2.88-2.27,6.62-2.16,10.38-.05,1.88.33,3.35.69,5.24.19.74.37,1.89-.06,2.09h0c-1.69.89-4.71.29-6.87-.81-3.71-1.98-5.07-5.77-5.55-7.25.19.84.26,1.89.34,2.72,1,5.46,3.71,9.6,7.7,12.74,1.23.87,2.56,1.74,3.9,2.51l2.68,1.22c.51.54.79,5.45,2.24,2.25.22-.52.25-1.35.57-1.76.44-.72,2-.47,2.83-.55,6.81-.76,15.7-5.32,21.83-8.18,6.77-3.26,13.56-7.36,21.31-7.99.94.03,1.87.26,2.72-.34.88-1.54,1.34-3.2,2.01-4.75,0-.21.32-.41.44-.72.33-.72.89-2.06-.14-2.41h-.1s0,.1,0,.1ZM144.21,64.77c-.43.41-.95.39-1.37.59-7.81,3.24-17.13,8.1-25.51,9.13-.94.08-3.35.22-4.07-.11-.21,0-.79-1.69-.99-2.11-.68-2-1.35-4-2.03-6.01-.19-.74-.48-1.47-.78-2.21-.39-1.16-.15-2.3.5-3.22,1.31-2.05,4.27-3.54,6.36-3.69,3.97-.21,8.43.96,12.17,1.89,4.77,1.28,9.53,2.97,14.18,4.56.72.23,2.4.06,1.43,1.19h.1Z"/>
</svg>