<?xml version="1.0" encoding="UTF-8"?>
<svg id="Layer_2" data-name="Layer 2" xmlns="http://www.w3.org/2000/svg" xmlns:xlink="http://www.w3.org/1999/xlink" viewBox="0 0 178.37 113.45">
  <defs>
    <style>
      .cls-1 {
        fill: url(#linear-gradient-2);
      }

      .cls-2 {
        stroke: url(#linear-gradient);
        stroke-miterlimit: 10;
        stroke-width: .28px;
      }
    </style>
    <linearGradient id="linear-gradient" x1="112.17" y1="78.41" x2="178.37" y2="78.41" gradientUnits="userSpaceOnUse">
      <stop offset="0" stop-color="#F5F5F5" stop-opacity="0"/>
      <stop offset="1" stop-color="#fff"/>
    </linearGradient>
    <linearGradient id="linear-gradient-2" x1="64.29" y1="46.41" x2="124.38" y2="46.41" gradientUnits="userSpaceOnUse">
      <stop offset="0" stop-color="#F5F5F5"/>
      <stop offset=".99" stop-color="#BFBFBF" stop-opacity=".8"/>
    </linearGradient>
  </defs>
  <g id="Layer_1-2" data-name="Layer 1">
    <g>
      <path class="cls-2" d="M177.61,71.54c-9.46-.48-18.34-3.07-27.39-5.48.06-.19.1-.38.16-.57.42-1.28.71-2.55,1.06-3.87.19-.72.83-1.49-.33-1.99-.96-.43-2.3-.7-3.3-1.04-1.27-.43-2.49-1.03-3.83-1.29-.09.04-.51,1.01-.57,1.2-.36,1.04-.56,2.36-.84,3.42-.09.32-.42,1.29-.58,1.94-3.61-.8-7.3-1.25-10.06-.36-3.22,1.03-5.32,2.9-6.61,5.27-1.56,2.83-2,6.36-1.85,10.04.07,1.85.42,3.2.78,4.96.15.71.43,1.81.06,2.03l.06.12c-1.61.81-4.54.3-6.61-.72-3.62-1.81-5.03-5.4-5.46-6.8.19.85.26,1.75.43,2.61,1.12,5.23,3.77,9.09,7.74,11.97,1.17.85,2.46,1.62,3.85,2.32l2.55,1.07c.54.48.91,5.19,2.16,2.06.22-.52.2-1.29.48-1.74.43-.74,1.93-.51,2.67-.61,6.48-.88,14.85-5.46,20.72-8.45,6.43-3.27,12.78-7.43,20.17-8.16.87-.09,1.78.2,2.56-.36.75-1.51,1.23-3.07,1.83-4.62.09-.25.29-.43.38-.68.26-.74.81-2.01-.23-2.27ZM159.14,77.6c-.38.45-.86.36-1.32.57-7.35,3.32-16.23,8.16-24.24,9.36-.88.13-3.17.32-3.93,0-.2-.09-.83-1.62-.96-1.97-.7-1.88-1.39-3.8-2.09-5.71-.25-.7-.51-1.39-.75-2.09-.41-1.09-.17-2.16.42-3.13,1.23-1.99,4.01-3.49,5.97-3.67,3.77-.33,8.07.67,11.74,1.54,4.64,1.13,9.17,2.58,13.72,3.97.7.2,2.32.09,1.43,1.13Z"/>
      <path class="cls-1" d="M124.32,85.82c-.16.1-.45.03-.94-.32-.93-.67-2.35-1.91-3.1-2.75-.06-.07-.12-.13-.17-.2-3.43-3.98-4.64-11.42-5.13-18.43-.32-4.25-.36-8.33-.51-11.39-.55-12.07-.81-24.24-2.71-36.15-.84-5.3-2.06-10.58-3.51-15.71-.04-.16-.16-.51-.26-.61-.14-.16-.68-.38-.85-.16-.19.71-.58,1.43-.77,2.16-.2.78-.48,2.07-.64,2.87-.75,4.1.48,7.35,1.12,11.32,2.39,14.98,2.87,30.14,3.04,45.31.06,3.9.32,7.91.13,11.82-.07,1.48-.25,3.16-.81,4.54-.09.2-.17.39-.28.58-.62,1.17-1.81,2.23-3.23,3.04-2.98,1.7-7.06,2.27-9.33.32-1.25-1.07-2.06-3.46-2.06-5.09,0-.74.45-2.25.36-2.81-.03-.22-.54-.75-.75-.75-.93.19-1.48.67-2.12,1.28-2.97,2.85-5.9,6.46-9.58,8.35-4.26,2.19-11.75,4.62-14.88-.51-2.46-4.01-2.56-12.82-2.77-17.62-.06-1.45-.12-2.91-.16-4.38-.01.29-.01.57-.03.83-.03.72-.04,3.01-.07,7.56-.09,11.45,0,12.91.88,14.98.43,1.01,2.54,5.93,7.72,8.03,2.3.91,4.41.97,5.72.88,3.64-1.52,6.65-4.32,9.27-7.25.67-.75,1.71-2.36,2.51-2.77.25-.12.52-.23.8-.28.2-.03.33.41.38.57.45,1.94.43,3.62,1.61,5.4,3.04,4.59,9.01,4.1,13.1,1.25.91-.64,1.74-1.39,2.42-2.23,2.41-3.03,2.35-5.35,3.23-8.82.04-.14.07-.52.25-.59h.03c.01.07.04.16.04.23,0,.03.01.06.03.1.43,1.39,1.84,4.98,5.46,6.8,2.07,1.03,5,1.54,6.61.72l-.06-.12Z"/>
      <path fill="#D9D9D9" d="M69.53,101.55c0-.28.51-1.28.65-1.51.57-.94,1.22-1.85,1.87-2.77,0,0,.01,0,.01-.01.71-.96,1.42-1.93,2.04-2.91.1-.16.14-.29.16-.41,1.55-.16,3-.55,4.38-1.14-1.32.09-3.42.03-5.72-.88-5.19-2.1-7.29-7.01-7.72-8.03-.88-2.07-.97-3.54-.88-14.98.03-4.55.04-6.84.07-7.56.01-.26.01-.54.03-.83v-.19c-.29-7.88-.46-15.88-.97-23.85-.68-11.03-2.01-21.98-5.12-32.43-.13-.46-.23-1.55-.55-1.78-.41-.28-.75-.25-.94.23-.51,1.2-.59,2.83-.83,4.09-.33,1.75-.81,2.93-.54,4.78.12.83.41,1.65.54,2.51,1.22,7.71,2.16,15.53,2.8,23.4.54,6.4.87,12.82,1,19.24.1,4.84.09,9.66-.04,14.46-.06,2.16.03,4.55-.23,6.68-.06.54-.19,1.04-.36,1.52-.51,1.43-1.46,2.65-2.51,3.81-3.61,4.01-8.1,7.38-12.51,10.43-5.42,3.75-11.97,7.77-18.71,9.59h-.03c-2.23.62-4.46,1-6.69,1.04-4.42.09-7.85-.96-10.4-2.81t-.03-.01c-5.32-3.9-6.9-11.36-5.91-19.47.13-1.03.87-4.69,1.36-5.43.46-.7.71-.14,1.26.01,1.03.29,2.26-.48,2.88-1.26.84-1.01,1.84-3.94,2.1-5.27.1-.58.29-1.35-.29-1.68-.57,1.13-2.04,3.56-3.49,3.51-.7-.03-1.48-1.01-1.68-1.61-1.01-2.97.42-7.32,1.2-10.22.39-1.45.7-3.04,1.26-4.36.17-.41.3-.94-.1-1.26-.38.25-.19.8-.35,1.06-.07.14-.39.17-.55.49-.19.38-.46,1.06-.65,1.46-1.59,3.64-3.93,10.66-3.54,14.61.13,1.28.78,1.99.58,3.51-.07.49-.38.75-.49,1.14-2.19,6.98-2.68,16.91-.39,24.08.1.33.22.67.33.99,4.67,12.68,17.04,12.77,27.84,7.98,3.1-1.38,6.29-3.1,9.43-5.07h.01c6.14-3.84,12.1-8.56,16.79-13.32,3.38-3.42,3.74-4.94,4.84-9.55.17-.72.23-1.49.43-2.22.65.75.43,2.09.61,3.09.12.65.25,1.3.41,1.93.68,2.78,1.77,5.2,3.48,6.93l-3.35,5.36.9.93,4.39,2.68h.01l.81.49c.12.13.17.43.16.71-.01.17-.04.33-.09.43-.06.13-.29.25-.39.42-.77,1.38-1.61,2.77-2.45,4.12-.29.48-1.33,1.75-1.3,2.23.07.8.51.67.93.96,1.61,1.1,3.25,2.3,4.87,3.33.1.07.85.49.94.49.28-.01.7-.29.85-.54.62-.93,1.16-2.1,1.75-3.06.78-1.3,1.83-2.51,2.2-4.03l-6.39-4.23v-.04Z"/>
    </g>
  </g>
</svg>