<svg width="8" height="11" viewBox="0 0 8 11" fill="none" xmlns="http://www.w3.org/2000/svg">
<path d="M2.90852 10.7394C3.64997 10.2924 4.40592 9.82077 5.17302 9.32448C6.00813 8.7845 6.80979 8.2434 7.58023 7.70678C7.77201 7.57346 7.8311 7.31244 7.7118 7.10966C7.25355 6.3277 7.01383 5.63088 6.88115 5.14915C6.65481 4.32686 6.14304 2.46942 7.03725 0.683673C7.04059 0.678071 7.04393 0.67135 7.04616 0.665748C7.23905 0.285969 6.86108 -0.129658 6.47084 0.0383853C4.41484 0.922295 1.76345 2.13333 0.592732 3.29283C0.572662 3.313 0.553707 3.33428 0.538098 3.35781C-0.954844 5.4606 0.998579 8.10896 2.27968 10.5602C2.40009 10.7909 2.68664 10.8727 2.90852 10.7394Z" fill="white"/>
</svg>
