<svg width="115" height="96" viewBox="0 0 115 96" fill="none" xmlns="http://www.w3.org/2000/svg">
<mask id="path-1-inside-1_20_13" fill="white">
<path d="M114.895 61.4109C114.814 60.0509 114.696 58.9216 114.605 58.1374C114.548 59.5602 114.402 61.4143 114.035 63.5563C114.035 63.5563 113.585 66.1867 112.858 68.564C111.397 73.3375 109.197 80.5298 103.145 82.9429C99.5307 84.3847 96.0988 83.4997 94.9794 83.2107C90.4103 82.0321 87.7823 78.9334 86.4566 77.3247C80.3332 69.8949 81.4615 60.2682 81.8729 57.9974C82.077 56.8704 82.2955 55.7434 82.5252 54.6141C82.5375 54.5559 82.5486 54.4976 82.5609 54.4393C83.726 48.7259 85.1822 42.9844 86.6406 37.2507C87.3028 34.6505 87.9651 32.0526 88.6018 29.4591C89.3767 26.2976 90.1159 23.144 90.767 20.0027C90.7994 19.8459 90.8317 19.6879 90.864 19.5311C90.8685 19.5098 90.8741 19.4862 90.8774 19.4638C90.9622 19.0527 91.0447 18.6415 91.1261 18.2315C91.4126 16.7707 91.6802 15.3154 91.921 13.8646C92.1083 12.7343 92.2477 11.605 92.3447 10.4802C92.3447 10.4802 92.3704 10.1833 92.3904 9.91784C92.5287 8.0548 92.7049 5.68314 92.1429 3.13672C91.9768 2.38388 91.6724 1.28487 91.077 -0.0012207C90.4482 2.94066 89.8204 5.88255 89.1916 8.82444L86.635 21.0446C86.5859 21.2216 86.5357 21.3997 86.4878 21.5778C86.4778 21.6148 86.4677 21.6507 86.4577 21.6876C86.3161 22.2534 86.1734 22.818 86.0318 23.3837C84.337 30.1245 82.6423 36.8653 80.9475 43.6061C80.9743 43.5916 81.001 43.5781 81.0278 43.5636C79.7099 49.1628 78.7889 55.0029 78.5437 60.8138C78.4823 60.5953 78.4221 60.3769 78.3608 60.1584C78.3987 60.8004 78.4009 61.4244 78.3653 62.0248C78.13 65.9335 76.239 68.7981 71.6152 68.6984C68.2257 68.6278 67.0974 66.4881 64.669 64.5612C63.5986 63.712 62.8538 63.4521 62.2317 63.5126C61.1635 63.6168 60.8569 64.3035 58.6783 65.4451C56.9936 66.3279 56.3045 66.3447 56.0737 66.3436C54.9052 66.3346 54.0277 65.7599 53.6899 65.5045C51.7588 64.0458 51.9338 61.3179 51.9818 60.8429C51.9952 60.7779 52.0085 60.7119 52.0219 60.6458C52.5961 57.8842 53.2562 55.1283 53.9118 52.3713C55.0167 47.721 56.1094 43.0661 56.7561 38.3665C57.3002 34.4175 57.3124 30.6421 57.1965 26.7132L56.0336 26.6337C55.747 26.8477 54.9643 33.0048 54.7737 33.9716C53.6643 39.6212 50.8612 52.8284 47.8307 59.3081C47.3926 60.2469 46.9488 61.0446 46.5051 61.6574C45.816 62.6085 44.4847 63.9159 43.285 64.0526C42.4109 64.522 41.4977 64.9376 40.5556 65.3017C32.3862 68.4553 21.9211 67.6666 13.6113 62.6197C7.31617 58.7973 4.376 52.3814 3.41267 46.1413C2.33895 39.2 3.71036 32.4771 5.63034 29.7884C6.72412 28.2559 7.96396 27.13 9.03656 26.3391C10.5329 25.2356 11.7047 24.783 11.7047 24.783C11.7047 24.783 12.4785 24.4839 13.5723 24.2542C14.113 24.1399 14.7318 24.0425 15.374 24.0066C17.1836 23.9058 19.4548 24.8905 21.9334 26.7905C25.576 29.579 29.6646 34.3413 33.3897 40.5253C33.7164 41.1023 34.0431 41.6792 34.3709 42.2562C33.9115 41.8596 33.1968 41.2692 32.2758 40.6239C29.3011 38.5402 27.3633 38.1122 23.9147 36.6536C23.7073 36.5662 23.4955 36.4744 23.2769 36.3791C18.7903 34.4153 16.5158 33.3924 15.4041 31.1911C14.4954 29.3919 14.5713 27.4997 14.7853 26.1733C14.2524 26.7267 13.4931 27.6431 12.9189 28.9482C11.9689 31.1115 12.1027 33.025 12.1663 33.7969C12.4261 36.9583 14.064 39.1261 14.7686 39.9585C15.8356 41.0675 17.1535 42.0119 18.5718 42.8432C27.0857 47.433 37.3579 50.5934 42.7621 58.1643C43.2114 58.7917 43.6262 59.4504 44.0031 60.1427C44.2963 60.6782 44.5661 61.2362 44.8125 61.8142C46.1126 55.0656 47.2521 51.8391 43.1936 47.5383C42.577 46.8852 41.8411 46.2074 40.9681 45.4893C40.2657 44.8015 39.5488 44.0486 38.8597 43.1658C38.5509 42.7693 38.2476 42.3469 37.9533 41.8921L37.8663 41.9515C37.1538 40.7964 36.6097 39.6593 36.1749 38.539C33.6038 31.9204 34.8648 25.882 28.1081 19.9736C27.4937 19.3731 26.8861 18.8757 26.2427 18.4477C26.2427 18.4477 25.8581 18.1901 25.2426 17.8596H25.2415C24.6941 17.5661 23.9626 17.2154 23.1554 16.9398C21.0336 16.2139 19.0791 15.9585 17.3587 15.973C12.7617 16.01 9.83265 17.9638 9.83265 17.9638C8.45009 18.8858 7.48007 19.9747 7.04189 20.4721C5.46644 22.2635 4.59676 24.057 4.12067 25.2625C-4.78681 45.0267 1.59415 65.7946 15.1466 73.2524C24.0875 78.1727 34.847 75.6061 35.6363 75.4168C39.4819 74.4914 42.4432 72.9634 44.3866 71.7691C44.8883 72.2677 45.7837 73.0194 47.0971 73.4955C49.3148 74.2976 51.2671 73.7834 51.9617 73.565C51.9695 73.575 51.9773 73.5862 51.9851 73.5963C52.4824 73.528 53.2406 73.3644 54.0679 72.9286C54.9364 72.4716 55.5207 71.9047 55.8619 71.5193C57.3537 73.0149 59.1555 73.7498 60.5235 73.5918C61.6084 73.4664 62.6531 72.9073 62.6531 72.9073C62.9597 72.7404 63.2664 72.5399 63.5719 72.3057C64.3713 71.6963 65.1897 70.2231 66.2645 70.501C66.7183 70.6197 67.7664 71.7725 68.8903 73.0832C70.1714 74.5755 71.5483 76.2749 72.2575 76.8855C73.1439 77.6484 75.6213 79.6638 78.1545 78.9524C79.2951 78.632 80.0611 77.8646 80.4848 77.3482C82.8887 88.941 91.1082 96.4301 98.2652 95.9797C108.169 95.3546 113.045 79.7142 113.395 78.5447C115.461 71.6381 114.972 62.6432 114.897 61.4098L114.895 61.4109ZM15.7832 21.5487C15.917 21.4916 16.0519 21.4434 16.1869 21.4019C16.6418 21.2664 17.1167 21.216 17.6062 21.2496C16.9629 21.2843 16.3519 21.4008 15.7364 21.598C15.6684 21.6193 15.5993 21.6417 15.5301 21.6663C15.6138 21.6238 15.6985 21.5846 15.7832 21.5487ZM13.9034 23.7904C14.0004 23.7523 14.0985 23.7187 14.1977 23.6885C14.6515 23.5518 15.1276 23.5036 15.6171 23.535C15.0128 23.5697 14.4386 23.6739 13.861 23.8487C13.754 23.8812 13.6458 23.9159 13.5388 23.9528C13.6592 23.8912 13.7808 23.8375 13.9034 23.7904ZM48.3983 71.4543C48.3927 71.4543 48.3871 71.451 48.3827 71.4487L48.3994 71.4286C48.3994 71.4364 48.3994 71.4454 48.3994 71.4543H48.3983ZM51.1277 65.9145C51.101 66.2416 51.0731 66.5687 51.0463 66.8959C51.0675 66.5654 51.0954 66.2383 51.1277 65.9145Z"/>
</mask>
<path d="M114.895 61.4109C114.814 60.0509 114.696 58.9216 114.605 58.1374C114.548 59.5602 114.402 61.4143 114.035 63.5563C114.035 63.5563 113.585 66.1867 112.858 68.564C111.397 73.3375 109.197 80.5298 103.145 82.9429C99.5307 84.3847 96.0988 83.4997 94.9794 83.2107C90.4103 82.0321 87.7823 78.9334 86.4566 77.3247C80.3332 69.8949 81.4615 60.2682 81.8729 57.9974C82.077 56.8704 82.2955 55.7434 82.5252 54.6141C82.5375 54.5559 82.5486 54.4976 82.5609 54.4393C83.726 48.7259 85.1822 42.9844 86.6406 37.2507C87.3028 34.6505 87.9651 32.0526 88.6018 29.4591C89.3767 26.2976 90.1159 23.144 90.767 20.0027C90.7994 19.8459 90.8317 19.6879 90.864 19.5311C90.8685 19.5098 90.8741 19.4862 90.8774 19.4638C90.9622 19.0527 91.0447 18.6415 91.1261 18.2315C91.4126 16.7707 91.6802 15.3154 91.921 13.8646C92.1083 12.7343 92.2477 11.605 92.3447 10.4802C92.3447 10.4802 92.3704 10.1833 92.3904 9.91784C92.5287 8.0548 92.7049 5.68314 92.1429 3.13672C91.9768 2.38388 91.6724 1.28487 91.077 -0.0012207C90.4482 2.94066 89.8204 5.88255 89.1916 8.82444L86.635 21.0446C86.5859 21.2216 86.5357 21.3997 86.4878 21.5778C86.4778 21.6148 86.4677 21.6507 86.4577 21.6876C86.3161 22.2534 86.1734 22.818 86.0318 23.3837C84.337 30.1245 82.6423 36.8653 80.9475 43.6061C80.9743 43.5916 81.001 43.5781 81.0278 43.5636C79.7099 49.1628 78.7889 55.0029 78.5437 60.8138C78.4823 60.5953 78.4221 60.3769 78.3608 60.1584C78.3987 60.8004 78.4009 61.4244 78.3653 62.0248C78.13 65.9335 76.239 68.7981 71.6152 68.6984C68.2257 68.6278 67.0974 66.4881 64.669 64.5612C63.5986 63.712 62.8538 63.4521 62.2317 63.5126C61.1635 63.6168 60.8569 64.3035 58.6783 65.4451C56.9936 66.3279 56.3045 66.3447 56.0737 66.3436C54.9052 66.3346 54.0277 65.7599 53.6899 65.5045C51.7588 64.0458 51.9338 61.3179 51.9818 60.8429C51.9952 60.7779 52.0085 60.7119 52.0219 60.6458C52.5961 57.8842 53.2562 55.1283 53.9118 52.3713C55.0167 47.721 56.1094 43.0661 56.7561 38.3665C57.3002 34.4175 57.3124 30.6421 57.1965 26.7132L56.0336 26.6337C55.747 26.8477 54.9643 33.0048 54.7737 33.9716C53.6643 39.6212 50.8612 52.8284 47.8307 59.3081C47.3926 60.2469 46.9488 61.0446 46.5051 61.6574C45.816 62.6085 44.4847 63.9159 43.285 64.0526C42.4109 64.522 41.4977 64.9376 40.5556 65.3017C32.3862 68.4553 21.9211 67.6666 13.6113 62.6197C7.31617 58.7973 4.376 52.3814 3.41267 46.1413C2.33895 39.2 3.71036 32.4771 5.63034 29.7884C6.72412 28.2559 7.96396 27.13 9.03656 26.3391C10.5329 25.2356 11.7047 24.783 11.7047 24.783C11.7047 24.783 12.4785 24.4839 13.5723 24.2542C14.113 24.1399 14.7318 24.0425 15.374 24.0066C17.1836 23.9058 19.4548 24.8905 21.9334 26.7905C25.576 29.579 29.6646 34.3413 33.3897 40.5253C33.7164 41.1023 34.0431 41.6792 34.3709 42.2562C33.9115 41.8596 33.1968 41.2692 32.2758 40.6239C29.3011 38.5402 27.3633 38.1122 23.9147 36.6536C23.7073 36.5662 23.4955 36.4744 23.2769 36.3791C18.7903 34.4153 16.5158 33.3924 15.4041 31.1911C14.4954 29.3919 14.5713 27.4997 14.7853 26.1733C14.2524 26.7267 13.4931 27.6431 12.9189 28.9482C11.9689 31.1115 12.1027 33.025 12.1663 33.7969C12.4261 36.9583 14.064 39.1261 14.7686 39.9585C15.8356 41.0675 17.1535 42.0119 18.5718 42.8432C27.0857 47.433 37.3579 50.5934 42.7621 58.1643C43.2114 58.7917 43.6262 59.4504 44.0031 60.1427C44.2963 60.6782 44.5661 61.2362 44.8125 61.8142C46.1126 55.0656 47.2521 51.8391 43.1936 47.5383C42.577 46.8852 41.8411 46.2074 40.9681 45.4893C40.2657 44.8015 39.5488 44.0486 38.8597 43.1658C38.5509 42.7693 38.2476 42.3469 37.9533 41.8921L37.8663 41.9515C37.1538 40.7964 36.6097 39.6593 36.1749 38.539C33.6038 31.9204 34.8648 25.882 28.1081 19.9736C27.4937 19.3731 26.8861 18.8757 26.2427 18.4477C26.2427 18.4477 25.8581 18.1901 25.2426 17.8596H25.2415C24.6941 17.5661 23.9626 17.2154 23.1554 16.9398C21.0336 16.2139 19.0791 15.9585 17.3587 15.973C12.7617 16.01 9.83265 17.9638 9.83265 17.9638C8.45009 18.8858 7.48007 19.9747 7.04189 20.4721C5.46644 22.2635 4.59676 24.057 4.12067 25.2625C-4.78681 45.0267 1.59415 65.7946 15.1466 73.2524C24.0875 78.1727 34.847 75.6061 35.6363 75.4168C39.4819 74.4914 42.4432 72.9634 44.3866 71.7691C44.8883 72.2677 45.7837 73.0194 47.0971 73.4955C49.3148 74.2976 51.2671 73.7834 51.9617 73.565C51.9695 73.575 51.9773 73.5862 51.9851 73.5963C52.4824 73.528 53.2406 73.3644 54.0679 72.9286C54.9364 72.4716 55.5207 71.9047 55.8619 71.5193C57.3537 73.0149 59.1555 73.7498 60.5235 73.5918C61.6084 73.4664 62.6531 72.9073 62.6531 72.9073C62.9597 72.7404 63.2664 72.5399 63.5719 72.3057C64.3713 71.6963 65.1897 70.2231 66.2645 70.501C66.7183 70.6197 67.7664 71.7725 68.8903 73.0832C70.1714 74.5755 71.5483 76.2749 72.2575 76.8855C73.1439 77.6484 75.6213 79.6638 78.1545 78.9524C79.2951 78.632 80.0611 77.8646 80.4848 77.3482C82.8887 88.941 91.1082 96.4301 98.2652 95.9797C108.169 95.3546 113.045 79.7142 113.395 78.5447C115.461 71.6381 114.972 62.6432 114.897 61.4098L114.895 61.4109ZM15.7832 21.5487C15.917 21.4916 16.0519 21.4434 16.1869 21.4019C16.6418 21.2664 17.1167 21.216 17.6062 21.2496C16.9629 21.2843 16.3519 21.4008 15.7364 21.598C15.6684 21.6193 15.5993 21.6417 15.5301 21.6663C15.6138 21.6238 15.6985 21.5846 15.7832 21.5487ZM13.9034 23.7904C14.0004 23.7523 14.0985 23.7187 14.1977 23.6885C14.6515 23.5518 15.1276 23.5036 15.6171 23.535C15.0128 23.5697 14.4386 23.6739 13.861 23.8487C13.754 23.8812 13.6458 23.9159 13.5388 23.9528C13.6592 23.8912 13.7808 23.8375 13.9034 23.7904ZM48.3983 71.4543C48.3927 71.4543 48.3871 71.451 48.3827 71.4487L48.3994 71.4286C48.3994 71.4364 48.3994 71.4454 48.3994 71.4543H48.3983ZM51.1277 65.9145C51.101 66.2416 51.0731 66.5687 51.0463 66.8959C51.0675 66.5654 51.0954 66.2383 51.1277 65.9145Z" fill="#C8C8C8" stroke="white" mask="url(#path-1-inside-1_20_13)"/>
</svg>
