<svg width="13" height="28" viewBox="0 0 13 28" fill="none" xmlns="http://www.w3.org/2000/svg">
<path d="M9.36925 19.494C8.20094 17.3737 7.6168 16.3141 7.85166 15.0503C8.07875 13.8279 8.94368 12.8047 9.82159 11.7655C10.3407 11.1494 10.8262 10.6892 11.1683 10.3872C9.59735 8.9968 8.02576 7.58415 6.85105 5.82545C5.80746 4.26153 5.32783 3.36737 5.91453 1.47768C6.08084 0.94753 6.40375 0.5233 6.52542 9.79541e-06C6.00527 0.385297 5.47149 0.764285 4.96074 1.16492C4.91253 1.20311 4.85884 1.24593 4.80183 1.28995L4.55528 1.48556C3.25027 2.52141 0.654092 4.64626 0.249062 5.60492C0.121004 5.90642 -0.0128314 6.43563 0.000978786 6.75983C0.0911926 9.11636 3.86258 12.0006 5.14519 13.9257C2.86245 17.2451 -1.02177 18.5805 2.88109 22.6454C4.34954 24.1737 6.18067 25.5309 7.69647 27.03C9.14891 25.8203 10.6002 24.6107 12.0527 23.4011C10.7702 21.8708 9.91435 20.4822 9.36925 19.494Z" fill="white"/>
</svg>
