<svg width="133" height="57" viewBox="0 0 133 57" fill="none" xmlns="http://www.w3.org/2000/svg">
<path d="M12.54 0.640625C14.6782 0.100224 17.7025 -0.136473 21.2432 1.08887C22.0166 1.35658 22.7165 1.7023 23.2236 1.98145C23.4768 2.12079 23.6815 2.24273 23.8223 2.33008C23.8926 2.37372 23.9468 2.40882 23.9834 2.43262C24.0016 2.44447 24.0153 2.45389 24.0244 2.45996C24.029 2.463 24.033 2.46533 24.0352 2.4668C24.0361 2.46742 24.0367 2.46845 24.0371 2.46875H24.0381C24.4735 2.7616 24.8916 3.09108 25.3086 3.46973L25.7256 3.86523L25.7344 3.87305C29.3254 7.04758 30.4249 10.2567 31.1904 13.6162C31.956 16.9759 32.3906 20.5259 34.6758 24.2754L34.7861 24.4561L34.8721 24.3955C35.7272 25.6949 36.6591 26.7118 37.5615 27.6055L37.5674 27.6113L37.5742 27.6172C40.6037 30.1371 41.7909 32.0848 42.0762 34.2734C42.2199 35.3759 42.1359 36.552 41.9277 37.9111C41.7435 39.1142 41.4651 40.4459 41.1641 41.9912C39.0649 37.4565 35.3672 34.3944 31.1221 31.8906C28.9097 30.5858 26.5442 29.4291 24.1748 28.2949C21.8029 27.1596 19.4277 26.0468 17.1865 24.8252C15.895 24.0593 14.7029 23.1934 13.7402 22.1826C13.1001 21.417 11.6301 19.4419 11.3965 16.5684C11.3388 15.8597 11.2191 14.119 12.0732 12.1523C12.4506 11.2854 12.9172 10.6074 13.3281 10.1084C13.2122 11.2952 13.2745 12.8005 13.998 14.249C14.5311 15.3164 15.3417 16.0912 16.5293 16.8262C17.7108 17.5573 19.2808 18.2583 21.3408 19.1699C24.9237 20.7552 26.7069 21.0594 29.5869 23.0996C30.4273 23.6949 31.0797 24.2395 31.499 24.6055L31.8047 24.3564L30.9023 22.7471L30.8994 22.7422L30.3555 21.8438C27.6214 17.4097 24.7003 13.8102 21.9551 11.2988C20.491 9.95948 19.0725 8.926 17.7559 8.24121C16.4412 7.55746 15.2144 7.21453 14.1377 7.27539C13.9876 7.2839 13.8389 7.29648 13.6924 7.31152C13.9201 7.27401 14.1506 7.24912 14.3857 7.23535L14.3867 6.83594C13.9734 6.80916 13.5675 6.84149 13.1758 6.94043L13.0088 6.9873C12.7938 7.05393 12.5788 7.13794 12.3691 7.24609L12.4805 7.50586C12.2104 7.56272 11.9604 7.62186 11.7393 7.68164C11.4245 7.76676 11.1658 7.84827 10.9854 7.90918C10.8951 7.93964 10.8239 7.96471 10.7754 7.98242C10.7512 7.99128 10.7325 7.99908 10.7197 8.00391C10.7135 8.00627 10.7084 8.0075 10.7051 8.00879C10.7034 8.00944 10.7021 8.01038 10.7012 8.01074H10.6992V8.01172H10.6982L10.6963 8.0127C10.6945 8.01342 10.6918 8.0143 10.6885 8.01562C10.6817 8.01834 10.6717 8.02212 10.6592 8.02734C10.6339 8.03784 10.5971 8.05424 10.5498 8.0752C10.4553 8.1171 10.3184 8.18017 10.1475 8.2666C9.80541 8.43959 9.32519 8.70532 8.76953 9.0791C7.65839 9.82658 6.2413 11.0071 5.01855 12.7393C4.15521 13.9622 3.42392 16.0297 2.99707 18.542C2.56929 21.0599 2.44435 24.0448 2.80957 27.1162C3.53967 33.2562 6.23348 39.7732 12.4219 43.5723C21.309 49.0301 32.8625 49.1752 40.7441 44.4463L41.2949 44.1162L41.0068 44.0977C48.3986 35.5708 55.7898 27.0444 63.1816 18.5186L63.0312 18.3877L63.1826 18.5186L63.1895 18.5088C63.6581 17.8982 64.1313 17.2934 64.6143 16.6992C66.9561 14.1661 69.3671 12.2528 72.1611 11.2109C74.8087 10.2238 77.8164 10.0141 81.46 10.8213C78.5166 12.1253 75.8475 14.1975 73.3574 16.6338L73.043 16.9424L73.1348 16.9492C70.9578 19.5543 68.7814 22.1603 66.6045 24.7656C64.3447 27.4701 62.085 30.1747 59.8252 32.8789L59.5137 33.251L59.5967 33.2432C57.9993 35.072 56.4552 36.9666 54.9092 38.8545C53.2551 40.8742 51.5977 42.8862 49.8604 44.8057L49.5371 45.1621L50.0176 45.1396C53.6227 44.9724 56.588 44.0315 59.126 42.6006H59.1611L59.2197 42.5381C63.6717 37.807 68.1243 33.0749 72.5752 28.3438L72.5811 28.3379L72.5859 28.3311C76.4189 23.5342 80.6115 19.6631 87.6123 19.7949C86.2442 21.4004 84.8669 23.0478 83.4834 24.7383L82.0059 26.5566L81.8369 26.7666C80.0537 28.9817 78.3383 31.1729 76.6885 33.3359L69.9365 41.4453C69.2841 42.1023 68.6624 42.7932 68.0391 43.4678C67.4927 44.0603 66.9438 44.6429 66.3662 45.1904L66.0166 45.5225L66.498 45.5361C73.2006 45.7217 77.8605 44.1585 81.6748 41.4316L81.6777 41.4297C81.7252 41.3944 81.7864 41.3503 81.8398 41.3096C83.2393 40.2577 84.3656 39.1753 85.252 38.2002L85.2568 38.1943C86.2483 37.018 87.7428 35.2085 89.4883 32.9385C91.3681 30.4934 92.6959 28.61 93.7881 27.0244C94.8815 25.4371 95.7337 24.1553 96.667 22.9033C98.4785 20.4739 101.245 17.288 105.448 13.9756L105.457 13.9688L105.465 13.9609C109.432 10.0266 113.937 7.13359 118.88 8.11133C114.331 11.587 110.765 14.8256 108.192 17.3281C103.919 21.4822 102.566 23.4285 101.005 25.7354L101.145 25.8408C100.636 26.4964 100.134 27.1492 99.6377 27.7998C99.5768 27.8731 99.5164 27.947 99.4551 28.0205L99.2705 28.2412L99.2627 28.252C97.9901 30.012 96.2275 32.2494 93.21 35.5928C92.5597 36.3127 91.1959 37.8099 90.0732 39.6406C88.9542 41.4654 88.0512 43.6589 88.373 45.7646C88.4653 46.3703 88.651 46.9371 88.8115 47.3506C88.892 47.5578 88.9665 47.728 89.0215 47.8467C89.0489 47.906 89.0721 47.9524 89.0879 47.9844L89.1113 48.0312C89.1119 48.0323 89.112 48.0335 89.1123 48.0342L89.1133 48.0352C90.4049 50.5092 92.7817 51.488 93.9756 51.9814C96.6665 53.0934 99.5607 52.9201 101.889 52.4189C104.203 51.9207 105.978 51.0925 106.478 50.8525L106.479 50.8535C106.953 50.657 107.427 50.4604 107.901 50.2637C108.311 50.0938 108.72 49.9236 109.13 49.7539C108.012 51.0568 106.322 52.6958 103.945 54.0186C101.925 55.1422 98.8896 56.3299 95.8223 56.6904C92.7521 57.0512 89.69 56.5803 87.5645 54.4443C85.2504 52.1187 84.916 48.6941 84.9863 46.4434L85.0039 45.876L84.6338 46.3066C83.6719 47.4283 82.1476 48.9754 79.9707 50.3447C74.5359 53.7671 68.985 53.5766 66.0156 53.5078C61.8166 53.4104 58.3696 52.418 55.96 51.4746L55.8848 51.4453L55.8105 51.4766C54.328 52.0941 52.4899 52.6989 50.3398 53.0732C45.9912 53.8312 42.3076 53.306 39.9189 52.7441L39.8516 52.7285L39.7891 52.7568C38.8357 53.195 35.1591 54.8263 30.3359 55.5762C25.5118 56.3262 19.5585 56.1918 14.0361 53.1191C1.67832 46.2436 -4.19173 27.046 3.97461 8.72559L3.97852 8.7168C4.41106 7.60953 5.20069 5.96261 6.63086 4.31836C7.03197 3.858 7.91062 2.86106 9.16016 2.01855L9.16309 2.01758C9.16513 2.01623 9.1684 2.01364 9.17285 2.01074C9.18181 2.00491 9.19546 1.99595 9.21387 1.98438C9.25103 1.96102 9.3073 1.92612 9.38184 1.88281C9.53092 1.79619 9.75349 1.67421 10.043 1.53516C10.6223 1.2569 11.4706 0.910945 12.54 0.640625ZM131.23 45.5352C131.731 46.18 132.232 46.8247 132.733 47.4697C132.065 48.1267 131.422 48.8436 130.782 49.5498C130.1 50.3037 129.419 51.0449 128.704 51.7002C127.757 52.5681 127.001 52.9719 126.362 53.0811C125.733 53.1886 125.19 53.015 124.651 52.6602C124.105 52.3 123.579 51.7637 122.988 51.1611C122.403 50.5644 121.761 49.9105 120.998 49.3467L120.888 49.2656L120.772 49.3389C120.306 49.6337 119.785 50.0716 119.239 50.5537C118.689 51.0403 118.114 51.5714 117.523 52.0713C116.934 52.57 116.341 53.0277 115.765 53.3613C115.186 53.6962 114.642 53.8964 114.149 53.9014C114.027 53.9027 113.851 53.8736 113.665 53.8252C113.573 53.8013 113.483 53.773 113.4 53.7441L113.18 53.6572C112.996 53.5723 112.735 53.3642 112.423 53.0576C112.116 52.7562 111.774 52.3759 111.429 51.9668C110.738 51.1488 110.039 50.2252 109.581 49.6055L109.559 49.5752H109.56L109.408 49.3701C109.389 49.3435 109.369 49.3173 109.351 49.292L109.297 49.2188C109.078 48.9191 108.867 48.613 108.657 48.3047C108.665 48.3089 108.674 48.3131 108.682 48.3174C108.892 48.4295 109.124 48.5578 109.383 48.6484H109.384C110.271 48.9553 110.95 49.0071 111.604 48.8486C112.248 48.6927 112.85 48.3366 113.58 47.874C115.191 46.8535 116.506 45.4791 117.776 44.1113C118.045 44.4246 118.412 44.8253 118.882 45.25C119.805 46.0847 120.763 46.9593 121.943 47.2168H121.944C122.568 47.3523 123.144 47.2786 123.808 47.0439C124.464 46.8122 125.22 46.4176 126.206 45.9053C127.104 45.4391 128.352 44.71 129.742 43.6191C130.238 44.2579 130.734 44.8966 131.23 45.5352ZM16.2178 4.70996C15.8034 4.68121 15.3983 4.71507 15.0068 4.81348L14.8398 4.85938C14.6246 4.92531 14.411 5.0114 14.2021 5.11914L14.3604 5.48535C14.9745 5.26929 15.5765 5.14378 16.2148 5.1084L16.2178 4.70996Z" fill="url(#paint0_linear_20_6)" stroke="white" stroke-width="0.4"/>
<defs>
<linearGradient id="paint0_linear_20_6" x1="66.5" y1="0" x2="66.5" y2="57" gradientUnits="userSpaceOnUse">
<stop stop-color="#F9F9F9"/>
<stop offset="0.673077" stop-color="#C8C8C8"/>
</linearGradient>
</defs>
</svg>
