<?xml version="1.0" encoding="UTF-8"?>
<svg id="Layer_2" data-name="Layer 2" xmlns="http://www.w3.org/2000/svg" xmlns:xlink="http://www.w3.org/1999/xlink" viewBox="0 0 178.2 113.58">
  <defs>
    <style>
      .cls-1 {
        fill: url(#linear-gradient);
        stroke: url(#linear-gradient-2);
      }

      .cls-1, .cls-2, .cls-3 {
        stroke-miterlimit: 10;
        stroke-width: .3px;
      }

      .cls-2 {
        fill: url(#linear-gradient-5);
        stroke: url(#linear-gradient-6);
      }

      .cls-3 {
        fill: url(#linear-gradient-3);
        stroke: url(#linear-gradient-4);
      }
    </style>
    <linearGradient id="linear-gradient" x1="112.05" y1="315.05" x2="177.95" y2="315.05" gradientTransform="translate(0 393.56) scale(1 -1)" gradientUnits="userSpaceOnUse">
      <stop offset="0" stop-color="#414042"/>
      <stop offset=".5" stop-color="#231f20"/>
    </linearGradient>
    <linearGradient id="linear-gradient-2" x1="111.91" y1="-763.41" x2="178.11" y2="-763.41" gradientTransform="translate(0 841.91)" gradientUnits="userSpaceOnUse">
      <stop offset="0" stop-color="#f5f6f6" stop-opacity="0"/>
      <stop offset="1" stop-color="#fff"/>
    </linearGradient>
    <linearGradient id="linear-gradient-3" x1="64.05" y1="347.05" x2="124.15" y2="347.05" gradientTransform="translate(0 393.56) scale(1 -1)" gradientUnits="userSpaceOnUse">
      <stop offset="0" stop-color="#656668" stop-opacity=".5"/>
      <stop offset=".5" stop-color="#302e2f" stop-opacity=".7"/>
      <stop offset="1" stop-color="#656668"/>
    </linearGradient>
    <linearGradient id="linear-gradient-4" x1="63.9" y1="347.05" x2="124.6" y2="347.05" gradientTransform="translate(0 393.56) scale(1 -1)" gradientUnits="userSpaceOnUse">
      <stop offset="0" stop-color="#f5f6f6" stop-opacity="0"/>
      <stop offset="1" stop-color="#5a5b5d"/>
    </linearGradient>
    <linearGradient id="linear-gradient-5" x1="-.25" y1="335.66" x2="78.35" y2="335.66" gradientTransform="translate(0 393.56) scale(1 -1)" gradientUnits="userSpaceOnUse">
      <stop offset="0" stop-color="#6d6e71" stop-opacity=".1"/>
      <stop offset=".3" stop-color="#444446" stop-opacity=".6"/>
      <stop offset=".7" stop-color="#231f20"/>
      <stop offset="1" stop-color="#231f20"/>
    </linearGradient>
    <linearGradient id="linear-gradient-6" x1="-.35" y1="335.66" x2="79.25" y2="335.66" gradientTransform="translate(0 393.56) scale(1 -1)" gradientUnits="userSpaceOnUse">
      <stop offset="0" stop-color="#58595b"/>
      <stop offset=".7" stop-color="#231f20"/>
    </linearGradient>
  </defs>
  <g id="Layer_1-2" data-name="Layer 1">
    <g>
      <path class="cls-1" d="M177.35,71.73c-9.5-.5-18.3-3.1-27.4-5.5,0-.2.1-.4.2-.6.4-1.3.7-2.5,1.1-3.9.2-.7.8-1.5-.3-2-1-.4-2.3-.7-3.3-1-1.3-.4-2.5-1-3.8-1.3l-.6,1.2c-.4,1-.6,2.4-.8,3.4,0,.3-.4,1.3-.6,1.9-3.6-.8-7.3-1.2-10.1-.4-3.2,1-5.3,2.9-6.6,5.3-1.6,2.8-2,6.4-1.8,10,0,1.8.4,3.2.8,5,.2.7.4,1.8,0,2h0c-1.6.9-4.5.4-6.6-.6-3.6-1.8-5-5.4-5.5-6.8.2.8.3,1.8.4,2.6,1.1,5.2,3.8,9.1,7.7,12,1.2.8,2.5,1.6,3.8,2.3l2.6,1.1c.5.5.9,5.2,2.2,2.1.2-.5.2-1.3.5-1.7.4-.7,1.9-.5,2.7-.6,6.5-.9,14.9-5.5,20.7-8.4,6.4-3.3,12.8-7.4,20.2-8.2.9,0,1.8.2,2.6-.4.8-1.5,1.2-3.1,1.8-4.6,0-.2.3-.4.4-.7.3-.7.8-2-.2-2.3h0l-.1.1ZM158.85,77.73c-.4.4-.9.4-1.3.6-7.4,3.3-16.2,8.2-24.2,9.4-.9.1-3.2.3-3.9,0-.2,0-.8-1.6-1-2-.7-1.9-1.4-3.8-2.1-5.7-.2-.7-.5-1.4-.8-2.1-.4-1.1-.2-2.2.4-3.1,1.2-2,4-3.5,6-3.7,3.8-.3,8.1.7,11.7,1.5,4.6,1.1,9.2,2.6,13.7,4,.7.2,2.3,0,1.4,1.1h.1Z"/>
      <path class="cls-3" d="M124.05,86.03c-.2,0-.4,0-.9-.3-.9-.7-2.3-1.9-3.1-2.8l-.2-.2c-3.4-4-4.6-11.4-5.1-18.4-.3-4.2-.4-8.3-.5-11.4-.6-12.1-.8-24.2-2.7-36.2-.8-5.3-2.1-10.6-3.5-15.7,0-.2-.2-.5-.3-.6-.1-.2-.7-.4-.8-.2-.2.7-.6,1.4-.8,2.2-.2.8-.5,2.1-.6,2.9-.8,4.1.5,7.3,1.1,11.3,2.4,15,2.9,30.1,3,45.3,0,3.9.3,7.9.1,11.8,0,1.5-.2,3.2-.8,4.5,0,.2-.2.4-.3.6-.6,1.2-1.8,2.2-3.2,3-3,1.7-7.1,2.3-9.3.3-1.2-1.1-2.1-3.5-2.1-5.1s.4-2.2.4-2.8c0-.2-.5-.8-.8-.8-.9.2-1.5.7-2.1,1.3-3,2.8-5.9,6.5-9.6,8.3-4.3,2.2-11.8,4.6-14.9-.5-2.5-4-2.6-12.8-2.8-17.6,0-1.5-.1-2.9-.2-4.4v8.4c0,11.4,0,12.9.9,15,.4,1,2.5,5.9,7.7,8,2.3.9,4.4,1,5.7.9,3.6-1.5,6.7-4.3,9.3-7.2.7-.8,1.7-2.4,2.5-2.8.2-.1.5-.2.8-.3.2,0,.3.4.4.6.4,1.9.4,3.6,1.6,5.4,3,4.6,9,4.1,13.1,1.2.9-.6,1.7-1.4,2.4-2.2,2.4-3,2.3-5.3,3.2-8.8,0-.1,0-.5.2-.6h0v.2h0c.4,1.4,1.8,5,5.5,6.8,2.1,1,5,1.5,6.6.7h0v-.1l.1.3Z"/>
      <path class="cls-2" d="M69.25,101.73c0-.3.5-1.3.7-1.5.6-.9,1.2-1.8,1.9-2.8h0c.7-1,1.4-1.9,2-2.9,0-.2.1-.3.2-.4,1.6-.2,3-.6,4.4-1.1-1.3,0-3.4,0-5.7-.9-5.2-2.1-7.3-7-7.7-8-.9-2.1-1-3.5-.9-15v-8.6c-.3-7.9-.5-15.9-1-23.8-.7-11-2-22-5.1-32.4-.1-.5-.2-1.5-.5-1.8-.4-.3-.8-.2-.9.2-.5,1.2-.6,2.8-.8,4.1-.3,1.8-.8,2.9-.5,4.8.1.8.4,1.6.5,2.5,1.2,7.7,2.2,15.5,2.8,23.4.5,6.4.9,12.8,1,19.2v14.5c0,2.2,0,4.6-.2,6.7,0,.5-.2,1-.4,1.5-.5,1.4-1.5,2.7-2.5,3.8-3.6,4-8.1,7.4-12.5,10.4-5.4,3.8-12,7.8-18.7,9.6h0c-2.2.6-4.5,1-6.7,1-4.4,0-7.9-1-10.4-2.8q-1.7-1.2,0,0c-5.3-3.9-6.9-11.4-5.9-19.5.1-1,.9-4.7,1.4-5.4.5-.7.7-.1,1.3,0,1,.3,2.3-.5,2.9-1.3.8-1,1.8-3.9,2.1-5.3.1-.6.3-1.3-.3-1.7-.6,1.1-2,3.6-3.5,3.5-.7,0-1.5-1-1.7-1.6-1-3,.4-7.3,1.2-10.2.4-1.5.7-3,1.3-4.4.2-.4.3-.9,0-1.3-.4.2-.2.8-.3,1.1,0,.1-.4.2-.6.5-.2.4-.5,1.1-.7,1.5-1.6,3.6-3.9,10.7-3.5,14.6.1,1.3.8,2,.6,3.5,0,.5-.4.8-.5,1.1-2.2,7-2.7,16.9-.4,24.1.1.3.2.7.3,1,4.7,12.7,17,12.8,27.8,8,3.1-1.4,6.3-3.1,9.4-5.1h0c6.1-3.8,12.1-8.6,16.8-13.3,3.4-3.4,3.7-4.9,4.8-9.6.2-.7.2-1.5.4-2.2.7.8.4,2.1.6,3.1.1.7.2,1.3.4,1.9.7,2.8,1.8,5.2,3.5,6.9l-3.3,5.4.9.9,4.4,2.7h0l.8.5c.1.1.2.4.2.7v.4c0,.1-.3.2-.4.4-.8,1.4-1.6,2.8-2.4,4.1-.3.5-1.3,1.8-1.3,2.2,0,.8.5.7.9,1,1.6,1.1,3.2,2.3,4.9,3.3,0,0,.8.5.9.5.3,0,.7-.3.8-.5.6-.9,1.2-2.1,1.8-3.1.8-1.3,1.8-2.5,2.2-4l-6.4-4.2h0l-.4.1Z"/>
    </g>
  </g>
</svg>