<?xml version="1.0" encoding="UTF-8"?>
<svg id="Layer_2" data-name="Layer 2" xmlns="http://www.w3.org/2000/svg" xmlns:xlink="http://www.w3.org/1999/xlink" viewBox="0 0 753.56 270.25">
  <defs>
    <style>
      .cls-1 {
        stroke: url(#linear-gradient-22);
        stroke-miterlimit: 10;
        stroke-width: .28px;
      }

      .cls-1, .cls-2 {
        fill: #a0722c;
      }

      .cls-3 {
        fill: url(#linear-gradient-8);
      }

      .cls-4 {
        fill: url(#linear-gradient-7);
      }

      .cls-5 {
        fill: url(#linear-gradient-5);
      }

      .cls-6 {
        fill: url(#linear-gradient-6);
      }

      .cls-7 {
        fill: url(#linear-gradient-9);
      }

      .cls-8 {
        fill: url(#linear-gradient-4);
      }

      .cls-9 {
        fill: url(#linear-gradient-3);
      }

      .cls-10 {
        fill: url(#linear-gradient-2);
      }

      .cls-11 {
        fill: url(#linear-gradient);
      }

      .cls-12 {
        fill: #c4c4c4;
      }

      .cls-13 {
        fill: url(#linear-gradient-10);
      }

      .cls-14 {
        fill: url(#linear-gradient-11);
      }

      .cls-15 {
        fill: url(#linear-gradient-12);
      }

      .cls-16 {
        fill: url(#linear-gradient-13);
      }

      .cls-17 {
        fill: url(#linear-gradient-19);
      }

      .cls-18 {
        fill: url(#linear-gradient-14);
      }

      .cls-19 {
        fill: url(#linear-gradient-21);
      }

      .cls-20 {
        fill: url(#linear-gradient-20);
      }

      .cls-21 {
        fill: url(#linear-gradient-15);
      }

      .cls-22 {
        fill: url(#linear-gradient-16);
      }

      .cls-23 {
        fill: url(#linear-gradient-17);
      }

      .cls-24 {
        fill: url(#linear-gradient-18);
      }

      .cls-25 {
        fill: #848484;
      }

      .cls-26 {
        opacity: .45;
      }

      .cls-27 {
        fill: #231f20;
        font-family: MyriadPro-Regular, 'Myriad Pro';
        font-size: 50.4px;
      }
    </style>
    <linearGradient id="linear-gradient" x1="63.73" y1="165.97" x2="167.5" y2="165.97" gradientUnits="userSpaceOnUse">
      <stop offset="0" stop-color="#a0722c"/>
      <stop offset="1" stop-color="#414042"/>
    </linearGradient>
    <linearGradient id="linear-gradient-2" x1="64.38" y1="156.32" x2="167.89" y2="156.32" xlink:href="#linear-gradient"/>
    <linearGradient id="linear-gradient-3" x1="64.33" y1="137.57" x2="136.5" y2="137.57" xlink:href="#linear-gradient"/>
    <linearGradient id="linear-gradient-4" x1="9.38" y1="169.66" x2="108.86" y2="169.66" xlink:href="#linear-gradient"/>
    <linearGradient id="linear-gradient-5" x1="30.93" y1="268.23" x2="33.3" y2="268.23" xlink:href="#linear-gradient"/>
    <linearGradient id="linear-gradient-6" x1="38.49" y1="186.5" x2="109.04" y2="186.5" xlink:href="#linear-gradient"/>
    <linearGradient id="linear-gradient-7" x1="65.74" y1="194.06" x2="112.04" y2="194.06" xlink:href="#linear-gradient"/>
    <linearGradient id="linear-gradient-8" x1="66.01" y1="184.88" x2="141.76" y2="184.88" xlink:href="#linear-gradient"/>
    <linearGradient id="linear-gradient-9" x1="295.99" y1="165.07" x2="399.75" y2="165.07" xlink:href="#linear-gradient"/>
    <linearGradient id="linear-gradient-10" x1="241.63" y1="168.76" x2="341.12" y2="168.76" xlink:href="#linear-gradient"/>
    <linearGradient id="linear-gradient-11" x1="263.18" y1="267.33" x2="265.55" y2="267.33" xlink:href="#linear-gradient"/>
    <linearGradient id="linear-gradient-12" x1="270.75" y1="185.6" x2="341.3" y2="185.6" xlink:href="#linear-gradient"/>
    <linearGradient id="linear-gradient-13" x1="298" y1="193.16" x2="344.3" y2="193.16" xlink:href="#linear-gradient"/>
    <linearGradient id="linear-gradient-14" x1="298.27" y1="183.98" x2="374.02" y2="183.98" xlink:href="#linear-gradient"/>
    <linearGradient id="linear-gradient-15" x1="444.13" y1="160.11" x2="543.62" y2="160.11" xlink:href="#linear-gradient"/>
    <linearGradient id="linear-gradient-16" x1="465.68" y1="258.68" x2="468.05" y2="258.68" xlink:href="#linear-gradient"/>
    <linearGradient id="linear-gradient-17" x1="473.24" y1="176.95" x2="543.79" y2="176.95" xlink:href="#linear-gradient"/>
    <linearGradient id="linear-gradient-18" x1="500.49" y1="184.51" x2="546.79" y2="184.51" xlink:href="#linear-gradient"/>
    <linearGradient id="linear-gradient-19" x1="500.76" y1="175.33" x2="576.52" y2="175.33" xlink:href="#linear-gradient"/>
    <linearGradient id="linear-gradient-20" x1="73.26" y1="161.14" x2="99.81" y2="161.14" gradientUnits="userSpaceOnUse">
      <stop offset="0" stop-color="#a0722c"/>
      <stop offset="1" stop-color="#f7ed45"/>
    </linearGradient>
    <linearGradient id="linear-gradient-21" x1="305.54" y1="160.62" x2="332.1" y2="160.62" xlink:href="#linear-gradient-20"/>
    <linearGradient id="linear-gradient-22" x1="2165.61" y1="-499.16" x2="2204.27" y2="-417.93" gradientTransform="translate(180.17 2318.55) rotate(-64.76)" gradientUnits="userSpaceOnUse">
      <stop offset="0" stop-color="#5e5e5e" stop-opacity="0"/>
      <stop offset="1" stop-color="#fff"/>
    </linearGradient>
  </defs>
  <g id="Layer_1-2" data-name="Layer 1">
    <path class="cls-11" d="M167.17,184.67c-8.55-5.68-15.62-12.72-22.73-19.85-.94-.94-1.88-1.89-2.82-2.83-.79-.78-1.65-1.68-2.57-2.62-1.88-1.93-4.02-4.09-6.25-6-2.85-2.46-5.86-4.53-8.73-5.25-2.12-.54-4.05-.64-5.81-.39-1.68.23-3.19.79-4.57,1.61-2.65,1.55-4.79,4.01-6.57,6.91-.61-1.8-1.46-3.55-2.56-5.21-6.81-10.25-20.64-13.04-30.89-6.23-10.25,6.81-13.04,20.64-6.23,30.89s20.64,13.04,30.89,6.23c.38-.25.75-.51,1.11-.79.14-.04.32-.11.52-.23.16-.09.33-.2.53-.34.2-.14.38-.34.56-.53h0s0,0,0,0c.07-.08.14-.16.21-.24h0s.01-.01.01-.01h0c.15-.17.3-.33.46-.45.09-.07.18-.13.27-.17.19-.1.4-.12.63-.09h0s0,0,0,0c.63.08,1.35.53,1.96.88h0c.1.06.2.12.3.16.09.05.18.09.26.13.45.2.91.38,1.39.56,0,0,.01,0,.02,0,2,.75,4.25,1.35,6.6,1.83.04,0,.08.02.12.03,1.74.35,3.54.65,5.35.9.49.07.98.13,1.47.2,3.08.4,6.14.68,8.92.94.97.09,1.9.18,2.78.26.4.04.8.08,1.2.11,3.32.29,6.68.48,10.03.84,5.03.54,10.02,1.47,14.69,3.71.97.47,1.75,1.34,2.9,1.26,1.66-1,3.09-2.24,4.62-3.4.24-.18.56-.24.8-.42.7-.55,2.04-1.46,1.1-2.38ZM98.99,176.57c-.82.81-1.73,1.55-2.73,2.21-8.51,5.65-20.02,3.33-25.67-5.18s-3.33-20.02,5.18-25.67c2.52-1.67,5.31-2.65,8.12-2.97.2-.02.39-.04.59-.06,6.51-.53,13.1,2.4,16.96,8.2,1.55,2.34,2.5,4.91,2.89,7.52.85,5.77-1.06,11.75-5.34,15.94ZM144.27,179c-.66.2-1.1-.18-1.7-.27-.81-.11-1.65-.23-2.5-.34-3.29-.43-6.8-.83-10.34-1.33-1.58-.22-3.16-.47-4.74-.74-1.47-.26-2.93-.54-4.36-.87-3.16-.71-6.2-1.6-8.95-2.77-.22-.09-.51-.23-.84-.38-.64-.31-1.43-.73-2.08-1.13-.53-.33-.98-.67-1.19-.94-.08-.11-.06-.62-.01-1.17.02-.28.06-.56.09-.8.03-.25.06-.46.08-.56.06-.37.13-.75.19-1.12h0c.08-.52.17-1.03.26-1.55.03-.19.07-.39.1-.59.35-2.06.72-4.13,1.07-6.19.39-2.3,2.75-3.35,5.31-3.53,1.94-.15,4,.21,5.37.89,1.58.78,3.14,1.8,4.63,2.94,1.88,1.43,3.67,3.05,5.34,4.61.48.45.95.9,1.41,1.33,1.51,1.44,2.97,2.92,4.42,4.41.12.13.25.26.37.39,2.45,2.54,4.83,5.13,7.24,7.7.61.65,2.38,1.54.84,2.01Z"/>
    <path class="cls-10" d="M167.14,138.06c-10.25-.44-19.95-2.8-29.72-5.22-1.29-.32-2.58-.64-3.88-.96-1.08-.26-2.28-.58-3.55-.91-2.61-.68-5.55-1.42-8.45-1.9-3.71-.63-7.36-.84-10.19.02-2.09.64-3.8,1.55-5.17,2.67-1.31,1.07-2.32,2.33-3.08,3.74-1.46,2.69-2.02,5.91-2.04,9.31-1.45-1.23-3.08-2.29-4.88-3.13-11.13-5.25-24.41-.48-29.66,10.65-5.25,11.13-.48,24.41,10.65,29.65,11.13,5.25,24.41.48,29.65-10.65.19-.41.38-.83.54-1.25.1-.11.21-.26.33-.47.09-.16.18-.34.28-.57.09-.23.15-.49.21-.75h0s0,0,0,0c.02-.11.04-.21.06-.31h0s0-.02,0-.02h0c.04-.23.09-.44.16-.63.04-.1.09-.2.14-.29.11-.18.29-.31.5-.4h0s0,0,0,0c.57-.26,1.43-.24,2.13-.26h0c.12,0,.23,0,.34-.01.1,0,.2-.01.29-.03.49-.06.98-.14,1.48-.24,0,0,.02,0,.02,0,2.1-.39,4.33-1.05,6.6-1.85.04-.01.07-.03.11-.04,1.67-.6,3.37-1.27,5.04-1.99.46-.2.91-.39,1.36-.59,2.84-1.25,5.61-2.6,8.12-3.81.87-.42,1.71-.83,2.51-1.22.36-.17.72-.35,1.08-.53,2.99-1.47,5.97-3.05,9.02-4.47,4.58-2.14,9.33-3.93,14.49-4.43,1.07-.1,2.19.24,3.14-.42.9-1.72,1.49-3.51,2.2-5.3.11-.28.36-.5.46-.78.31-.84.99-2.3-.29-2.6ZM104.61,166.42c-.29,1.12-.68,2.22-1.19,3.31-4.35,9.24-15.41,13.21-24.65,8.85s-13.21-15.41-8.85-24.65c1.29-2.74,3.17-5.01,5.42-6.74.16-.12.31-.24.48-.35,5.29-3.82,12.45-4.73,18.76-1.76,2.54,1.2,4.68,2.9,6.36,4.94,3.72,4.5,5.17,10.6,3.68,16.41ZM144.61,145.07c-.46.51-1.04.42-1.6.65-.76.32-1.53.66-2.31,1-3.04,1.34-6.25,2.81-9.54,4.21-1.46.63-2.95,1.24-4.44,1.81-1.39.54-2.79,1.05-4.18,1.52-3.07,1.03-6.13,1.84-9.09,2.26-.24.04-.56.07-.92.11-.71.07-1.6.12-2.37.11-.63-.01-1.18-.07-1.5-.19-.13-.05-.38-.5-.62-.99-.12-.25-.24-.51-.34-.73-.1-.23-.18-.42-.22-.52-.14-.35-.28-.7-.42-1.06h0c-.19-.49-.38-.97-.58-1.46-.07-.18-.15-.37-.22-.56-.76-1.95-1.52-3.9-2.29-5.85-.86-2.17.63-4.29,2.71-5.77,1.59-1.13,3.53-1.89,5.06-2.02,1.76-.15,3.61-.09,5.48.11,2.35.25,4.72.7,6.95,1.18.65.14,1.28.28,1.9.41,2.04.45,4.05.96,6.06,1.49.17.05.35.09.52.14,3.41.91,6.79,1.89,10.18,2.84.85.24,2.83.09,1.76,1.29Z"/>
    <path class="cls-9" d="M132.71,91.44c-8.11,6.29-17.03,10.75-26.06,15.21-1.19.59-2.39,1.18-3.58,1.77-.99.49-2.11,1.03-3.3,1.6-2.43,1.17-5.15,2.5-7.68,4.01-3.24,1.92-6.16,4.11-7.76,6.59-1.19,1.84-1.9,3.63-2.22,5.38-.31,1.66-.27,3.28.06,4.85.62,3,2.28,5.82,4.45,8.43-1.9,0-3.83.25-5.75.76-11.88,3.18-18.94,15.4-15.76,27.29,3.18,11.88,15.4,18.94,27.29,15.76,11.89-3.18,18.94-15.4,15.76-27.29-.12-.44-.25-.88-.39-1.3.01-.15,0-.34-.05-.57-.03-.18-.08-.38-.16-.61-.07-.23-.2-.47-.33-.71h0s0,0,0,0c-.05-.09-.11-.18-.16-.28h0s0-.02,0-.02h0c-.11-.2-.21-.4-.28-.58-.04-.11-.06-.21-.08-.31-.03-.21.02-.42.12-.63h0s0,0,0,0c.27-.57.94-1.11,1.45-1.57h0c.09-.08.17-.16.25-.23.08-.07.15-.14.21-.21.33-.36.65-.74.97-1.14,0,0,.01-.01.01-.02,1.35-1.65,2.63-3.59,3.84-5.67.02-.03.04-.07.06-.1.89-1.54,1.75-3.15,2.56-4.78.22-.44.44-.89.66-1.33,1.36-2.79,2.61-5.61,3.73-8.16.39-.89.77-1.74,1.13-2.55.16-.37.33-.73.48-1.1,1.33-3.05,2.59-6.18,3.99-9.24,2.12-4.6,4.58-9.02,8.2-12.74.75-.77,1.82-1.23,2.12-2.35-.42-1.9-1.14-3.64-1.75-5.46-.09-.28-.05-.61-.15-.89-.3-.84-.74-2.4-1.9-1.8ZM103.28,153.47c.5,1.04.92,2.14,1.23,3.29,2.64,9.86-3.23,20.04-13.1,22.68s-20.04-3.23-22.68-13.1c-.78-2.92-.82-5.87-.22-8.65.04-.19.09-.38.14-.58,1.57-6.34,6.45-11.65,13.19-13.46,2.71-.73,5.45-.81,8.05-.34,5.74,1.03,10.79,4.75,13.41,10.15ZM120.03,111.34c-.02.69-.52.99-.8,1.53-.37.74-.74,1.49-1.12,2.26-1.45,2.98-2.95,6.18-4.56,9.38-.71,1.43-1.45,2.85-2.22,4.25-.71,1.31-1.45,2.6-2.21,3.86-1.68,2.77-3.49,5.36-5.48,7.6-.16.18-.38.42-.63.68-.5.51-1.14,1.12-1.74,1.61-.49.4-.95.71-1.27.83-.13.05-.61-.14-1.11-.36-.25-.11-.51-.23-.73-.34-.23-.11-.41-.2-.51-.25-.33-.18-.67-.36-1-.54h0c-.46-.25-.92-.49-1.38-.74-.17-.09-.35-.19-.52-.28-1.84-.99-3.68-1.99-5.53-2.99-2.06-1.1-2.29-3.68-1.66-6.16.48-1.89,1.48-3.72,2.56-4.81,1.24-1.25,2.7-2.4,4.26-3.46,1.96-1.33,4.06-2.51,6.07-3.59.58-.32,1.16-.62,1.72-.91,1.85-.97,3.71-1.89,5.59-2.78.16-.08.33-.15.49-.23,3.19-1.51,6.41-2.94,9.61-4.4.81-.37,2.22-1.76,2.17-.16Z"/>
    <g class="cls-26">
      <path class="cls-2" d="M3.37,167.71c9.46-3.99,17.71-9.58,26.03-15.27,1.1-.75,2.2-1.5,3.3-2.25.92-.62,1.93-1.34,3.01-2.09,2.21-1.55,4.71-3.27,7.25-4.73,3.26-1.88,6.6-3.36,9.55-3.54,2.19-.13,4.1.12,5.78.7,1.6.54,2.99,1.38,4.19,2.43,2.31,2.01,3.96,4.83,5.17,8.01.93-1.66,2.09-3.22,3.48-4.64,8.6-8.8,22.7-8.97,31.51-.37,8.8,8.6,8.97,22.71.37,31.51s-22.71,8.97-31.51.37c-.33-.32-.64-.65-.94-.98-.13-.06-.29-.17-.47-.32-.14-.11-.29-.26-.46-.44-.17-.18-.31-.4-.46-.63h0s0,0,0,0c-.06-.09-.11-.18-.16-.28h0s0-.01,0-.01h0c-.12-.2-.24-.38-.37-.53-.08-.08-.15-.16-.23-.22-.17-.13-.38-.19-.61-.21h0s0,0,0,0c-.63-.04-1.43.27-2.08.5h0c-.11.04-.22.08-.32.11-.1.03-.19.06-.28.08-.48.11-.96.21-1.47.29,0,0-.01,0-.02,0-2.1.37-4.42.53-6.83.57-.04,0-.08,0-.12,0-1.78.02-3.6-.02-5.42-.11-.5-.02-.99-.05-1.48-.08-3.1-.18-6.16-.47-8.94-.74-.97-.09-1.9-.18-2.78-.26-.4-.04-.8-.07-1.2-.12-3.31-.33-6.65-.77-10.01-1.04-5.04-.41-10.11-.43-15.13.91-1.04.28-1.97.99-3.09.7-1.45-1.3-2.62-2.77-3.91-4.2-.2-.22-.51-.34-.7-.57-.59-.68-1.73-1.82-.64-2.54ZM71.87,172.45c.66.95,1.41,1.85,2.27,2.68,7.3,7.14,19.05,7,26.19-.31s7-19.05-.31-26.19c-2.16-2.11-4.72-3.59-7.43-4.43-.19-.06-.38-.11-.57-.16-6.29-1.73-13.32-.09-18.19,4.9-1.96,2.01-3.38,4.36-4.24,6.85-1.91,5.51-1.14,11.74,2.28,16.66ZM26.93,166.41c.61.32,1.12.03,1.72.05.82.04,1.66.08,2.51.13,3.31.19,6.84.45,10.41.62,1.59.08,3.19.13,4.79.15,1.49.02,2.98.01,4.45-.04,3.24-.11,6.39-.42,9.31-1.05.23-.05.55-.13.9-.22.69-.19,1.54-.45,2.26-.73.59-.23,1.09-.48,1.34-.7.1-.09.18-.6.23-1.14.03-.27.05-.56.06-.8.02-.25.02-.46.03-.57,0-.38.02-.76.02-1.14h0c.01-.52.02-1.04.03-1.57,0-.2,0-.4.01-.6.04-2.09.06-4.19.1-6.28.04-2.33-2.08-3.8-4.55-4.46-1.88-.5-3.97-.53-5.45-.13-1.7.47-3.42,1.18-5.1,2.02-2.12,1.05-4.18,2.31-6.1,3.53-.56.35-1.11.71-1.64,1.05-1.75,1.14-3.47,2.31-5.16,3.51-.15.11-.29.21-.44.31-2.88,2.04-5.7,4.14-8.54,6.22-.72.52-2.62,1.07-1.2,1.82Z"/>
      <path class="cls-2" d="M14.38,120.5c10.09,1.91,20.06,1.82,30.13,1.68,1.33-.02,2.66-.04,4-.05,1.11-.01,2.35-.05,3.67-.08,2.7-.07,5.73-.12,8.66.07,3.76.23,7.36.86,9.91,2.34,1.89,1.1,3.35,2.37,4.43,3.78,1.03,1.34,1.73,2.8,2.15,4.34.81,2.96.62,6.22-.13,9.53,1.69-.86,3.52-1.52,5.47-1.94,12.03-2.57,23.87,5.09,26.45,17.13s-5.1,23.88-17.13,26.45-23.88-5.1-26.45-17.13c-.1-.44-.18-.89-.24-1.34-.08-.13-.15-.3-.21-.53-.05-.17-.1-.38-.14-.62-.04-.24-.04-.51-.03-.78h0s0,0,0,0c0-.11.01-.21.02-.32h0s0-.02,0-.02h0c0-.23,0-.45-.02-.65-.02-.11-.04-.21-.07-.31-.07-.2-.21-.37-.39-.51h0s0,0,0,0c-.5-.38-1.34-.56-2.01-.74h0c-.11-.03-.22-.06-.32-.09-.1-.03-.19-.06-.28-.09-.46-.17-.92-.36-1.38-.57,0,0-.02,0-.02,0-1.95-.86-3.98-2-6-3.3-.03-.02-.07-.04-.1-.06-1.49-.96-2.99-2.01-4.46-3.09-.4-.29-.79-.59-1.19-.89-2.48-1.87-4.87-3.81-7.04-5.56-.75-.61-1.48-1.2-2.17-1.76-.31-.25-.62-.5-.93-.76-2.57-2.11-5.11-4.33-7.76-6.41-3.98-3.13-8.19-5.95-13.1-7.61-1.02-.34-2.19-.27-2.96-1.12-.49-1.88-.65-3.76-.93-5.66-.05-.29-.24-.56-.27-.86-.11-.89-.44-2.47.87-2.47ZM68.81,162.36c.03,1.15.16,2.32.41,3.49,2.14,9.99,12,16.37,21.99,14.24s16.37-12,14.24-21.99c-.63-2.96-1.95-5.6-3.74-7.8-.13-.15-.25-.3-.38-.45-4.28-4.93-11.05-7.44-17.87-5.98-2.75.59-5.22,1.76-7.32,3.36-4.64,3.53-7.45,9.15-7.32,15.14ZM34.72,132.46c.33.61.92.64,1.41,1,.66.49,1.34.99,2.02,1.5,2.65,1.99,5.44,4.16,8.33,6.28,1.28.95,2.59,1.88,3.91,2.78,1.23.84,2.47,1.66,3.73,2.43,2.76,1.7,5.55,3.18,8.34,4.28.22.09.53.2.87.31.68.23,1.53.48,2.28.64.62.13,1.17.2,1.51.16.14-.02.48-.4.83-.82.18-.21.35-.44.5-.64.15-.2.27-.37.34-.46.22-.31.43-.62.65-.94h0c.3-.43.59-.86.89-1.29.11-.16.23-.33.34-.49,1.19-1.72,2.37-3.45,3.56-5.17,1.33-1.92.37-4.32-1.33-6.23-1.29-1.46-3.01-2.64-4.47-3.12-1.68-.55-3.5-.91-5.37-1.14-2.35-.29-4.76-.39-7.04-.43-.66-.02-1.31-.02-1.94-.03-2.09-.02-4.17,0-6.24.07-.18,0-.36.01-.54.02-3.53.11-7.04.3-10.56.45-.89.04-2.78-.56-2.01.85Z"/>
      <path class="cls-2" d="M46.97,87.19c7.64,6.85,16.22,11.94,24.91,17.03,1.15.67,2.3,1.35,3.45,2.03.96.56,2.04,1.18,3.18,1.83,2.34,1.34,4.96,2.86,7.38,4.54,3.09,2.14,5.85,4.54,7.27,7.13,1.05,1.92,1.64,3.76,1.83,5.52.19,1.68.03,3.29-.41,4.83-.84,2.95-2.69,5.64-5.04,8.09,1.9.14,3.8.52,5.68,1.17,11.63,4.02,17.79,16.71,13.77,28.34-4.02,11.63-16.71,17.79-28.34,13.77-11.63-4.02-17.79-16.71-13.77-28.34.15-.43.31-.86.48-1.27,0-.15.03-.33.09-.56.05-.17.11-.37.2-.6.09-.23.23-.45.38-.68h0s0,0,0,0c.06-.09.12-.17.18-.26h0s0-.02,0-.02h0c.12-.19.24-.38.32-.56.04-.1.08-.2.1-.3.05-.21.01-.42-.07-.64h0s0,0,0,0c-.23-.59-.86-1.18-1.34-1.67h0c-.08-.09-.16-.17-.23-.25-.07-.08-.14-.15-.19-.22-.3-.39-.6-.78-.89-1.2,0,0-.01-.01-.01-.02-1.23-1.75-2.37-3.77-3.43-5.93-.02-.04-.03-.07-.06-.11-.78-1.6-1.52-3.26-2.21-4.95-.19-.46-.38-.91-.56-1.37-1.16-2.88-2.2-5.78-3.14-8.4-.33-.91-.65-1.79-.95-2.63-.14-.38-.27-.75-.4-1.13-1.11-3.14-2.14-6.35-3.32-9.5-1.78-4.74-3.93-9.33-7.27-13.3-.69-.82-1.73-1.36-1.95-2.49.56-1.86,1.39-3.55,2.13-5.32.11-.28.09-.61.21-.88.36-.82.91-2.34,2.03-1.66ZM71.88,151.17c-.58,1-1.07,2.07-1.46,3.2-3.34,9.65,1.79,20.22,11.45,23.56s20.22-1.8,23.56-11.45c.99-2.86,1.23-5.8.84-8.61-.03-.2-.06-.39-.09-.58-1.12-6.43-5.6-12.09-12.19-14.37-2.65-.92-5.38-1.2-8-.91-5.8.62-11.11,3.97-14.1,9.16ZM58.19,107.94c-.03.69.45,1.02.69,1.58.31.76.63,1.54.95,2.33,1.24,3.08,2.51,6.38,3.88,9.68.61,1.47,1.24,2.94,1.91,4.4.62,1.36,1.26,2.7,1.93,4.01,1.48,2.88,3.1,5.6,4.92,7.97.14.19.35.44.58.72.46.55,1.06,1.2,1.62,1.73.46.43.89.78,1.21.91.13.05.62-.09,1.13-.28.26-.09.53-.2.75-.29.24-.09.43-.17.53-.22.35-.15.69-.31,1.04-.47h0c.48-.21.95-.43,1.43-.64.18-.08.36-.16.54-.24,1.91-.86,3.81-1.73,5.72-2.58,2.13-.95,2.55-3.5,2.09-6.02-.35-1.92-1.21-3.82-2.21-4.98-1.15-1.34-2.53-2.59-4-3.75-1.86-1.46-3.87-2.79-5.8-4.01-.56-.36-1.11-.7-1.65-1.03-1.77-1.1-3.57-2.15-5.38-3.17-.16-.09-.31-.18-.47-.26-3.07-1.73-6.18-3.39-9.27-5.08-.78-.42-2.09-1.91-2.16-.31Z"/>
      <path class="cls-2" d="M104.18,77.9c1.41,10.17,4.67,19.59,8.02,29.09.44,1.26.88,2.51,1.32,3.77.37,1.05.79,2.21,1.24,3.45.92,2.54,1.94,5.39,2.7,8.23.98,3.63,1.53,7.25.94,10.14-.44,2.15-1.18,3.93-2.17,5.4-.94,1.41-2.1,2.53-3.43,3.42-2.54,1.71-5.69,2.57-9.07,2.92,1.36,1.33,2.57,2.85,3.58,4.57,6.28,10.58,2.79,24.25-7.79,30.53s-24.25,2.79-30.53-7.79-2.79-24.25,7.79-30.53c.39-.23.79-.45,1.19-.66.1-.11.24-.24.43-.37.15-.1.33-.21.54-.33.22-.12.47-.2.73-.28h0s0,0,0,0c.1-.03.2-.06.31-.08h0s.01-.01.01-.01h0c.22-.07.42-.14.6-.22.1-.05.19-.1.27-.17.17-.13.28-.31.36-.53h0s0,0,0,0c.2-.6.11-1.45.06-2.14h0c0-.12-.02-.23-.02-.34,0-.1,0-.2,0-.29.02-.49.05-.99.1-1.49,0,0,0-.02,0-.02.19-2.13.63-4.41,1.21-6.74,0-.04.02-.08.03-.12.44-1.72.95-3.47,1.51-5.21.15-.47.3-.94.46-1.41.98-2.95,2.05-5.83,3.03-8.44.34-.91.67-1.79.97-2.62.14-.38.28-.75.42-1.13,1.18-3.11,2.47-6.23,3.6-9.4,1.7-4.77,3.03-9.66,3.04-14.85,0-1.07-.44-2.16.12-3.16,1.63-1.06,3.36-1.81,5.06-2.69.26-.14.46-.4.73-.53.8-.39,2.2-1.2,2.62.04ZM81.88,142.84c-1.09.39-2.15.89-3.18,1.5-8.78,5.21-11.69,16.59-6.48,25.38,5.21,8.78,16.59,11.69,25.38,6.48,2.6-1.54,4.69-3.63,6.2-6.03.1-.17.21-.33.31-.51,3.3-5.63,3.53-12.84-.03-18.84-1.43-2.42-3.33-4.39-5.52-5.87-4.83-3.27-11.04-4.14-16.68-2.11ZM99.34,100.99c-.47.51-.31,1.07-.5,1.65-.25.78-.51,1.58-.78,2.39-1.04,3.15-2.21,6.49-3.29,9.89-.49,1.52-.95,3.05-1.39,4.59-.4,1.44-.78,2.87-1.11,4.31-.73,3.16-1.25,6.28-1.39,9.27-.01.24-.02.56-.02.93,0,.72.04,1.6.12,2.37.07.63.18,1.17.33,1.48.06.12.53.33,1.04.52.26.1.53.19.76.27.24.08.44.14.54.17.36.11.73.21,1.09.32h0c.5.15,1,.29,1.5.44.19.05.38.11.57.16,2.01.58,4.03,1.15,6.04,1.73,2.24.65,4.21-1.03,5.49-3.25.97-1.69,1.54-3.69,1.53-5.23-.01-1.77-.26-3.61-.63-5.45-.47-2.32-1.15-4.63-1.84-6.81-.2-.63-.4-1.25-.59-1.85-.64-1.98-1.34-3.95-2.05-5.9-.06-.17-.13-.34-.19-.51-1.23-3.31-2.53-6.58-3.8-9.86-.32-.83-.36-2.81-1.45-1.63Z"/>
    </g>
    <g>
      <path class="cls-8" d="M10.27,197.02c10.21-1.01,20.14-.05,30.16.97,1.32.13,2.65.27,3.98.4,1.1.11,2.34.25,3.65.4,2.68.3,5.7.62,8.63.69,3.76.1,7.4-.21,10.08-1.46,1.98-.93,3.54-2.07,4.74-3.37,1.15-1.24,1.97-2.64,2.52-4.14,1.07-2.87,1.17-6.14.71-9.5,1.61,1.01,3.38,1.83,5.28,2.41,11.76,3.62,24.23-2.97,27.85-14.74s-2.98-24.23-14.74-27.85c-11.76-3.62-24.23,2.98-27.85,14.74-.13.43-.25.87-.36,1.31-.09.12-.18.29-.26.51-.07.17-.13.37-.19.6-.06.24-.08.5-.1.77h0s0,0,0,0c0,.11,0,.21-.01.32h0s0,.02,0,.02h0c-.01.23-.03.45-.07.64-.03.11-.06.21-.1.3-.09.19-.24.35-.43.47h0s0,0,0,0c-.53.34-1.39.44-2.07.56h0c-.12.02-.23.04-.33.06-.1.02-.2.04-.28.07-.47.13-.95.28-1.43.45,0,0-.02,0-.02,0-2.02.68-4.14,1.65-6.27,2.76-.03.02-.07.04-.11.05-1.57.83-3.15,1.74-4.71,2.69-.42.26-.84.52-1.26.78-2.64,1.64-5.19,3.36-7.5,4.92-.8.54-1.58,1.07-2.32,1.56-.33.22-.66.45-.99.67-2.75,1.88-5.47,3.86-8.29,5.7-4.24,2.77-8.68,5.21-13.72,6.43-1.04.25-2.2.08-3.05.86-.65,1.83-.98,3.69-1.42,5.55-.07.29-.28.54-.35.83-.19.87-.65,2.42.65,2.54ZM68.17,160.11c.13-1.15.36-2.3.71-3.44,3.01-9.76,13.39-15.26,23.15-12.25s15.25,13.39,12.25,23.15c-.89,2.89-2.43,5.41-4.41,7.44-.14.14-.28.28-.42.42-4.7,4.53-11.66,6.44-18.32,4.39-2.68-.83-5.05-2.21-7-3.99-4.31-3.93-6.62-9.76-5.96-15.72ZM31.58,186.9c.38-.57.97-.56,1.49-.87.7-.43,1.42-.87,2.15-1.32,2.82-1.75,5.79-3.67,8.84-5.52,1.36-.83,2.74-1.64,4.14-2.42,1.3-.73,2.61-1.44,3.92-2.09,2.9-1.45,5.81-2.68,8.68-3.53.23-.07.54-.15.9-.24.7-.17,1.57-.34,2.33-.44.62-.08,1.18-.1,1.52-.02.13.03.44.44.75.89.16.23.31.47.44.68.14.21.24.39.3.49.19.33.38.66.56.99h0c.26.45.52.91.78,1.36.1.17.2.35.29.52,1.03,1.82,2.06,3.65,3.09,5.47,1.15,2.03-.01,4.33-1.87,6.09-1.41,1.34-3.23,2.37-4.72,2.71-1.72.4-3.57.6-5.45.66-2.36.09-4.77-.03-7.05-.19-.66-.04-1.31-.09-1.94-.14-2.08-.16-4.15-.37-6.21-.61-.18-.02-.36-.04-.54-.07-3.5-.42-6.99-.91-10.48-1.38-.88-.12-2.82.31-1.92-1.02Z"/>
      <path class="cls-5" d="M33,269.73c-.26-.45-.52-.91-.78-1.36h0c-.19-.34-.37-.67-.56-.99-.06-.09-.16-.27-.3-.49-.13-.21-.28-.45-.44-.68.65,1.42,1.44,2.78,2.37,4.03-.1-.17-.2-.35-.29-.52Z"/>
      <path class="cls-6" d="M42.5,233.22c7.95-6.49,16.75-11.19,25.66-15.88,1.18-.62,2.35-1.24,3.53-1.87.98-.52,2.09-1.08,3.26-1.69,2.4-1.23,5.09-2.64,7.57-4.2,3.19-2,6.05-4.27,7.59-6.79,1.14-1.87,1.81-3.68,2.08-5.44.27-1.67.18-3.29-.19-4.84-.7-2.98-2.43-5.76-4.67-8.31,1.9-.05,3.82-.35,5.73-.91,11.8-3.49,18.54-15.88,15.05-27.69-3.49-11.8-15.89-18.54-27.69-15.05s-18.54,15.89-15.05,27.69c.13.44.27.87.43,1.29,0,.15.01.34.07.57.04.18.09.38.17.61.08.23.21.46.34.7h0s0,0,0,0c.06.09.11.18.17.27h0s0,.02,0,.02h0c.12.2.22.39.29.58.04.11.07.21.09.31.04.21,0,.42-.1.63h0s0,0,0,0c-.26.58-.91,1.14-1.41,1.61h0c-.09.08-.17.16-.24.24-.07.07-.14.14-.2.21-.32.37-.63.76-.94,1.16,0,0-.01.01-.01.02-1.31,1.69-2.54,3.66-3.7,5.77-.02.03-.04.07-.06.11-.85,1.56-1.66,3.19-2.44,4.84-.21.45-.42.9-.62,1.35-1.29,2.83-2.46,5.67-3.52,8.25-.37.9-.73,1.76-1.07,2.58-.15.37-.31.74-.46,1.11-1.25,3.08-2.43,6.24-3.75,9.34-2,4.65-4.35,9.14-7.87,12.95-.73.79-1.79,1.28-2.06,2.4.47,1.89,1.23,3.61,1.89,5.41.1.28.06.61.17.89.32.83.8,2.38,1.95,1.75ZM70.3,170.44c-.53-1.03-.97-2.11-1.31-3.26-2.9-9.79,2.71-20.12,12.51-23.01s20.12,2.71,23.01,12.51c.86,2.9.97,5.85.45,8.64-.04.19-.08.39-.12.58-1.41,6.37-6.15,11.82-12.83,13.8-2.69.8-5.43.95-8.04.55-5.77-.88-10.91-4.47-13.67-9.8ZM54.65,212.99c0-.69.5-1,.76-1.55.35-.75.7-1.51,1.06-2.29,1.38-3.02,2.79-6.26,4.31-9.49.67-1.44,1.38-2.88,2.1-4.31.68-1.33,1.38-2.64,2.11-3.91,1.61-2.81,3.35-5.45,5.28-7.74.15-.18.37-.43.62-.69.49-.52,1.12-1.15,1.7-1.65.48-.41.93-.74,1.25-.86.13-.05.61.12,1.12.33.26.1.52.22.74.32.23.1.42.19.52.24.34.17.68.34,1.02.51h0c.47.23.93.47,1.4.7.18.09.36.18.53.27,1.87.94,3.73,1.9,5.6,2.84,2.08,1.05,2.39,3.62,1.81,6.11-.43,1.9-1.38,3.76-2.43,4.87-1.21,1.28-2.64,2.47-4.17,3.56-1.92,1.38-3.99,2.61-5.98,3.75-.57.33-1.14.65-1.69.96-1.82,1.02-3.66,1.98-5.52,2.93-.16.08-.32.16-.48.24-3.15,1.59-6.33,3.1-9.49,4.65-.8.39-2.17,1.82-2.17.21Z"/>
      <path class="cls-4" d="M87.04,246.9c3.44-9.67,8.54-18.24,13.74-26.87.69-1.14,1.37-2.28,2.06-3.43.57-.95,1.22-2.01,1.92-3.13,1.42-2.3,2.99-4.89,4.31-7.52,1.69-3.36,2.97-6.79,2.98-9.74,0-2.19-.36-4.09-1.03-5.73-.63-1.57-1.55-2.91-2.67-4.05-2.14-2.19-5.06-3.67-8.29-4.69,1.6-1.03,3.09-2.27,4.43-3.75,8.29-9.09,7.64-23.18-1.45-31.48s-23.19-7.64-31.48,1.45-7.64,23.19,1.45,31.48c.34.31.68.6,1.03.88.07.13.18.28.35.45.12.13.28.27.46.43.19.16.42.29.66.42h0s0,0,0,0c.1.05.19.1.28.15h0s.01.01.01.01h0c.2.11.39.22.55.34.09.07.17.14.23.22.14.16.21.36.24.59h0s0,0,0,0c.08.63-.19,1.44-.38,2.11h0c-.03.12-.06.23-.08.33-.03.1-.05.2-.06.29-.08.48-.15.98-.21,1.48,0,0,0,.02,0,.02-.24,2.12-.28,4.45-.18,6.85,0,.04,0,.08,0,.12.08,1.78.23,3.59.42,5.41.05.49.11.98.16,1.48.36,3.09.83,6.13,1.26,8.88.15.96.29,1.88.42,2.76.06.4.12.79.19,1.19.53,3.29,1.16,6.6,1.62,9.93.7,5.01,1.01,10.07-.03,15.15-.22,1.05-.87,2.02-.52,3.12,1.38,1.37,2.92,2.46,4.42,3.66.23.19.37.49.61.67.71.55,1.91,1.62,2.57.49ZM78.35,178.8c-.98-.6-1.92-1.31-2.81-2.11-7.55-6.88-8.09-18.62-1.21-26.16s18.62-8.09,26.16-1.21c2.24,2.04,3.86,4.5,4.85,7.16.07.19.14.37.2.56,2.09,6.18.86,13.29-3.84,18.45-1.89,2.08-4.15,3.62-6.59,4.63-5.39,2.23-11.65,1.82-16.76-1.31ZM86.98,223.31c-.36-.59-.09-1.12-.15-1.72-.09-.82-.18-1.65-.28-2.5-.38-3.3-.85-6.8-1.22-10.35-.17-1.58-.32-3.18-.43-4.77-.11-1.49-.19-2.97-.22-4.44-.08-3.24.05-6.4.51-9.36.04-.24.09-.55.17-.91.15-.7.36-1.56.59-2.29.2-.6.41-1.11.62-1.38.08-.11.59-.21,1.13-.3.27-.04.56-.08.8-.11.25-.03.46-.05.57-.06.38-.03.75-.06,1.14-.09h0c.52-.04,1.04-.08,1.56-.12.2-.01.4-.03.59-.04,2.09-.16,4.18-.31,6.26-.47,2.33-.18,3.91,1.86,4.71,4.29.61,1.85.76,3.93.44,5.43-.37,1.73-.98,3.48-1.72,5.21-.93,2.17-2.06,4.3-3.18,6.3-.32.58-.64,1.14-.95,1.69-1.03,1.81-2.11,3.59-3.2,5.36-.1.15-.19.3-.29.46-1.87,2.99-3.81,5.93-5.71,8.89-.48.75-.92,2.68-1.75,1.3Z"/>
      <path class="cls-3" d="M141.74,227.72c-3.62-9.6-5.26-19.44-6.86-29.38-.21-1.31-.42-2.63-.64-3.94-.18-1.1-.36-2.32-.56-3.63-.4-2.67-.88-5.66-1.57-8.52-.88-3.66-2.12-7.1-4.02-9.36-1.41-1.68-2.91-2.89-4.49-3.71-1.5-.79-3.06-1.22-4.65-1.37-3.05-.29-6.23.46-9.36,1.77.56-1.82.89-3.73.96-5.72.46-12.3-9.14-22.64-21.44-23.09s-22.64,9.14-23.09,21.44,9.14,22.64,21.44,23.09c.45.02.91.02,1.36,0,.14.05.32.1.56.12.18.02.39.03.63.03.25,0,.51-.05.77-.1h0s0,0,0,0c.11-.02.2-.05.31-.07h0s.01,0,.01,0h0c.22-.05.43-.09.63-.1.11,0,.22,0,.32.02.21.03.4.14.57.3h0s0,0,0,0c.46.43.79,1.22,1.08,1.85h0c.05.11.1.21.15.31.05.09.09.18.14.26.25.42.51.84.8,1.27,0,0,0,.01.01.02,1.18,1.78,2.66,3.57,4.29,5.34.03.03.05.06.08.09,1.21,1.31,2.49,2.6,3.81,3.86.36.34.72.68,1.08,1.02,2.27,2.12,4.59,4.14,6.7,5.97.73.64,1.44,1.25,2.11,1.84.3.26.6.53.91.79,2.52,2.17,5.14,4.29,7.65,6.54,3.77,3.37,7.28,7.04,9.76,11.59.51.94.64,2.11,1.62,2.72,1.94.16,3.82-.01,5.73-.06.3,0,.6.13.9.12.89-.04,2.51,0,2.28-1.29ZM91.11,181.34c-1.14.17-2.31.25-3.51.2-10.2-.38-18.2-8.99-17.82-19.19s8.99-18.2,19.19-17.82c3.02.11,5.85.95,8.33,2.33.17.1.34.19.51.3,5.59,3.37,9.24,9.6,8.98,16.56-.1,2.81-.83,5.45-2.04,7.79-2.68,5.18-7.72,8.92-13.64,9.83ZM126.45,209.75c-.65-.22-.79-.79-1.23-1.21-.6-.57-1.2-1.15-1.83-1.73-2.42-2.27-5.04-4.64-7.62-7.12-1.15-1.1-2.29-2.22-3.41-3.37-1.04-1.07-2.06-2.15-3.04-3.25-2.15-2.42-4.1-4.92-5.65-7.47-.13-.2-.29-.48-.46-.8-.34-.63-.73-1.42-1.03-2.14-.24-.58-.4-1.11-.42-1.46,0-.14.31-.54.67-.96.18-.21.37-.42.54-.6.17-.19.32-.33.39-.41.27-.27.54-.53.81-.8h0c.37-.37.74-.74,1.11-1.1.14-.14.28-.28.43-.42,1.49-1.47,2.99-2.93,4.48-4.4,1.66-1.64,4.19-1.11,6.37.23,1.66,1.02,3.12,2.51,3.84,3.86.83,1.56,1.5,3.29,2.05,5.09.69,2.26,1.2,4.62,1.64,6.86.13.65.25,1.29.37,1.91.38,2.05.71,4.1,1.01,6.16.02.18.05.36.07.53.5,3.49.92,6.99,1.38,10.48.11.88,1.03,2.64-.49,2.12Z"/>
    </g>
    <path class="cls-2" d="M.54,165.01c9.86,2.86,18.71,7.45,27.63,12.12,1.18.62,2.36,1.24,3.54,1.85.98.51,2.08,1.1,3.24,1.73,2.38,1.28,5.06,2.69,7.76,3.85,3.46,1.49,6.95,2.56,9.9,2.4,2.19-.12,4.06-.6,5.66-1.37,1.53-.73,2.81-1.72,3.88-2.9,2.06-2.27,3.37-5.26,4.19-8.56,1.12,1.54,2.45,2.95,4,4.2,9.57,7.74,23.6,6.25,31.34-3.32s6.25-23.6-3.32-31.34-23.6-6.25-31.34,3.32c-.29.35-.56.72-.82,1.08-.13.08-.27.2-.43.38-.12.13-.26.29-.4.49-.15.2-.26.44-.38.68h0s0,0,0,0c-.04.1-.08.19-.13.29h0s0,.02,0,.02h0c-.09.21-.19.4-.3.57-.06.09-.13.17-.2.25-.15.15-.35.23-.58.28h0s0,0,0,0c-.62.12-1.45-.1-2.13-.25h0c-.11-.03-.23-.05-.33-.07-.1-.02-.2-.04-.29-.04-.49-.05-.98-.09-1.49-.12,0,0-.02,0-.02,0-2.13-.12-4.45-.01-6.85.23-.04,0-.08,0-.12.01-1.77.18-3.57.44-5.37.74-.49.08-.98.17-1.46.25-3.06.55-6.07,1.19-8.79,1.78-.95.2-1.86.4-2.73.59-.39.08-.78.17-1.17.26-3.25.72-6.52,1.55-9.82,2.21-4.96,1-9.99,1.6-15.13.87-1.06-.15-2.07-.75-3.15-.34-1.29,1.46-2.28,3.06-3.39,4.62-.17.24-.47.4-.63.64-.5.74-1.5,2-.34,2.6ZM68.02,152.29c.54-1.02,1.19-2,1.94-2.93,6.42-7.94,18.1-9.18,26.05-2.76s9.18,18.11,2.76,26.05c-1.9,2.35-4.27,4.12-6.86,5.27-.18.08-.36.16-.55.23-6.05,2.46-13.22,1.64-18.64-2.74-2.18-1.77-3.86-3.93-5.01-6.31-2.54-5.25-2.51-11.53.31-16.81ZM24.09,163.54c.57-.39,1.11-.16,1.71-.25.81-.14,1.64-.28,2.48-.43,3.27-.58,6.74-1.25,10.26-1.83,1.57-.26,3.16-.5,4.74-.71,1.48-.19,2.96-.36,4.42-.48,3.23-.27,6.39-.33,9.37-.04.24.02.56.06.92.11.71.1,1.58.27,2.32.46.61.16,1.13.35,1.42.54.11.08.25.57.36,1.11.06.27.11.55.16.79.05.25.08.45.09.56.05.38.1.75.15,1.13h0c.07.52.14,1.03.22,1.55.03.2.05.39.08.59.28,2.07.55,4.15.84,6.22.32,2.31-1.62,4.02-4,4.96-1.81.72-3.88.99-5.39.76-1.74-.27-3.53-.77-5.3-1.41-2.22-.8-4.42-1.8-6.47-2.8-.6-.29-1.18-.57-1.75-.85-1.87-.92-3.71-1.89-5.54-2.88-.16-.09-.31-.17-.47-.26-3.1-1.69-6.15-3.45-9.21-5.18-.77-.44-2.73-.76-1.41-1.67Z"/>
    <path class="cls-7" d="M399.43,183.76c-8.55-5.68-15.62-12.72-22.73-19.85-.94-.94-1.88-1.89-2.82-2.83-.79-.78-1.65-1.68-2.57-2.62-1.88-1.93-4.02-4.09-6.25-6-2.85-2.46-5.86-4.53-8.73-5.25-2.12-.54-4.05-.64-5.81-.39-1.68.23-3.19.79-4.57,1.61-2.65,1.55-4.79,4.01-6.57,6.91-.61-1.8-1.46-3.55-2.56-5.21-6.81-10.25-20.64-13.04-30.89-6.23-10.25,6.81-13.04,20.64-6.23,30.89s20.64,13.04,30.89,6.23c.38-.25.75-.51,1.11-.79.14-.04.32-.11.52-.23.16-.09.33-.2.53-.34.2-.14.38-.34.56-.53h0s0,0,0,0c.07-.08.14-.16.21-.24h0s.01-.01.01-.01h0c.15-.17.3-.33.46-.45.09-.07.18-.13.27-.17.19-.1.4-.12.63-.09h0s0,0,0,0c.63.08,1.35.53,1.96.88h0c.1.06.2.12.3.16.09.05.18.09.26.13.45.2.91.38,1.39.56,0,0,.01,0,.02,0,2,.75,4.25,1.35,6.6,1.83.04,0,.08.02.12.03,1.74.35,3.54.65,5.35.9.49.07.98.13,1.47.2,3.08.4,6.14.68,8.92.94.97.09,1.9.18,2.78.26.4.04.8.08,1.2.11,3.32.29,6.68.48,10.03.84,5.03.54,10.02,1.47,14.69,3.71.97.47,1.75,1.34,2.9,1.26,1.66-1,3.09-2.24,4.62-3.4.24-.18.56-.24.8-.42.7-.55,2.04-1.46,1.1-2.38ZM331.25,175.67c-.82.81-1.73,1.55-2.73,2.21-8.51,5.65-20.02,3.33-25.67-5.18-5.65-8.5-3.33-20.02,5.18-25.67,2.52-1.67,5.31-2.65,8.12-2.97.2-.02.39-.04.59-.06,6.51-.53,13.1,2.4,16.96,8.2,1.55,2.34,2.5,4.91,2.89,7.52.85,5.77-1.06,11.75-5.34,15.94ZM376.53,178.1c-.66.2-1.1-.18-1.7-.27-.81-.11-1.65-.23-2.5-.34-3.29-.43-6.8-.83-10.34-1.33-1.58-.22-3.16-.47-4.74-.74-1.47-.26-2.93-.54-4.36-.87-3.16-.71-6.2-1.6-8.95-2.77-.22-.09-.51-.23-.84-.38-.64-.31-1.43-.73-2.08-1.13-.53-.33-.98-.67-1.19-.94-.08-.11-.06-.62-.01-1.17.02-.28.06-.56.09-.8.03-.25.06-.46.08-.56.06-.37.13-.75.19-1.12h0c.08-.52.17-1.03.26-1.55.03-.19.07-.39.1-.59.35-2.06.72-4.13,1.07-6.19.39-2.3,2.75-3.35,5.31-3.53,1.94-.15,4,.21,5.37.89,1.58.78,3.14,1.8,4.63,2.94,1.88,1.43,3.67,3.05,5.34,4.61.48.45.95.9,1.41,1.33,1.51,1.44,2.97,2.92,4.42,4.41.12.13.25.26.37.39,2.45,2.54,4.83,5.13,7.24,7.7.61.65,2.38,1.54.84,2.01Z"/>
    <g>
      <path class="cls-13" d="M242.53,196.11c10.21-1.01,20.14-.05,30.16.97,1.32.13,2.65.27,3.98.4,1.1.11,2.34.25,3.65.4,2.68.3,5.7.62,8.63.69,3.76.1,7.4-.21,10.08-1.46,1.98-.93,3.54-2.07,4.74-3.37,1.15-1.24,1.97-2.64,2.52-4.14,1.07-2.87,1.17-6.14.71-9.5,1.61,1.01,3.38,1.83,5.28,2.41,11.76,3.62,24.23-2.97,27.85-14.74s-2.98-24.23-14.74-27.85-24.23,2.98-27.85,14.74c-.13.43-.25.87-.36,1.31-.09.12-.18.29-.26.51-.07.17-.13.37-.19.6-.06.24-.08.5-.1.77h0s0,0,0,0c0,.11,0,.21-.01.32h0s0,.02,0,.02h0c-.01.23-.03.45-.07.64-.03.11-.06.21-.1.3-.09.19-.24.35-.43.47h0s0,0,0,0c-.53.34-1.39.44-2.07.56h0c-.12.02-.23.04-.33.06-.1.02-.2.04-.28.07-.47.13-.95.28-1.43.45,0,0-.02,0-.02,0-2.02.68-4.14,1.65-6.27,2.76-.03.02-.07.04-.11.05-1.57.83-3.15,1.74-4.71,2.69-.42.26-.84.52-1.26.78-2.64,1.64-5.19,3.36-7.5,4.92-.8.54-1.58,1.07-2.32,1.56-.33.22-.66.45-.99.67-2.75,1.88-5.47,3.86-8.29,5.7-4.24,2.77-8.68,5.21-13.72,6.43-1.04.25-2.2.08-3.05.86-.65,1.83-.98,3.69-1.42,5.55-.07.29-.28.54-.35.83-.19.87-.65,2.42.65,2.54ZM300.42,159.21c.13-1.15.36-2.3.71-3.44,3.01-9.76,13.39-15.26,23.15-12.25s15.25,13.39,12.25,23.15c-.89,2.89-2.43,5.41-4.41,7.44-.14.14-.28.28-.42.42-4.7,4.53-11.66,6.44-18.32,4.39-2.68-.83-5.05-2.21-7-3.99-4.31-3.93-6.62-9.76-5.96-15.72ZM263.84,185.99c.38-.57.97-.56,1.49-.87.7-.43,1.42-.87,2.15-1.32,2.82-1.75,5.79-3.67,8.84-5.52,1.36-.83,2.74-1.64,4.14-2.42,1.3-.73,2.61-1.44,3.92-2.09,2.9-1.45,5.81-2.68,8.68-3.53.23-.07.54-.15.9-.24.7-.17,1.57-.34,2.33-.44.62-.08,1.18-.1,1.52-.02.13.03.44.44.75.89.16.23.31.47.44.68.14.21.24.39.3.49.19.33.38.66.56.99h0c.26.45.52.91.78,1.36.1.17.2.35.29.52,1.03,1.82,2.06,3.65,3.09,5.47,1.15,2.03-.01,4.33-1.87,6.09-1.41,1.34-3.23,2.37-4.72,2.71-1.72.4-3.57.6-5.45.66-2.36.09-4.77-.03-7.05-.19-.66-.04-1.31-.09-1.94-.14-2.08-.16-4.15-.37-6.21-.61-.18-.02-.36-.04-.54-.07-3.5-.42-6.99-.91-10.48-1.38-.88-.12-2.82.31-1.92-1.02Z"/>
      <path class="cls-14" d="M265.26,268.83c-.26-.45-.52-.91-.78-1.36h0c-.19-.34-.37-.67-.56-.99-.06-.09-.16-.27-.3-.49-.13-.21-.28-.45-.44-.68.65,1.42,1.44,2.78,2.37,4.03-.1-.17-.2-.35-.29-.52Z"/>
      <path class="cls-15" d="M274.75,232.31c7.95-6.49,16.75-11.19,25.66-15.88,1.18-.62,2.35-1.24,3.53-1.87.98-.52,2.09-1.08,3.26-1.69,2.4-1.23,5.09-2.64,7.57-4.2,3.19-2,6.05-4.27,7.59-6.79,1.14-1.87,1.81-3.68,2.08-5.44.27-1.67.18-3.29-.19-4.84-.7-2.98-2.43-5.76-4.67-8.31,1.9-.05,3.82-.35,5.73-.91,11.8-3.49,18.54-15.88,15.05-27.69-3.49-11.8-15.89-18.54-27.69-15.05-11.8,3.49-18.54,15.89-15.05,27.69.13.44.27.87.43,1.29,0,.15.01.34.07.57.04.18.09.38.17.61.08.23.21.46.34.7h0s0,0,0,0c.06.09.11.18.17.27h0s0,.02,0,.02h0c.12.2.22.39.29.58.04.11.07.21.09.31.04.21,0,.42-.1.63h0s0,0,0,0c-.26.58-.91,1.14-1.41,1.61h0c-.09.08-.17.16-.24.24-.07.07-.14.14-.2.21-.32.37-.63.76-.94,1.16,0,0-.01.01-.01.02-1.31,1.69-2.54,3.66-3.7,5.77-.02.03-.04.07-.06.11-.85,1.56-1.66,3.19-2.44,4.84-.21.45-.42.9-.62,1.35-1.29,2.83-2.46,5.67-3.52,8.25-.37.9-.73,1.76-1.07,2.58-.15.37-.31.74-.46,1.11-1.25,3.08-2.43,6.24-3.75,9.34-2,4.65-4.35,9.14-7.87,12.95-.73.79-1.79,1.28-2.06,2.4.47,1.89,1.23,3.61,1.89,5.41.1.28.06.61.17.89.32.83.8,2.38,1.95,1.75ZM302.56,169.53c-.53-1.03-.97-2.11-1.31-3.26-2.9-9.79,2.71-20.12,12.51-23.01,9.79-2.9,20.12,2.71,23.01,12.51.86,2.9.97,5.85.45,8.64-.04.19-.08.39-.12.58-1.41,6.37-6.15,11.82-12.83,13.8-2.69.8-5.43.95-8.04.55-5.77-.88-10.91-4.47-13.67-9.8ZM286.91,212.09c0-.69.5-1,.76-1.55.35-.75.7-1.51,1.06-2.29,1.38-3.02,2.79-6.26,4.31-9.49.67-1.44,1.38-2.88,2.1-4.31.68-1.33,1.38-2.64,2.11-3.91,1.61-2.81,3.35-5.45,5.28-7.74.15-.18.37-.43.62-.69.49-.52,1.12-1.15,1.7-1.65.48-.41.93-.74,1.25-.86.13-.05.61.12,1.12.33.26.1.52.22.74.32.23.1.42.19.52.24.34.17.68.34,1.02.51h0c.47.23.93.47,1.4.7.18.09.36.18.53.27,1.87.94,3.73,1.9,5.6,2.84,2.08,1.05,2.39,3.62,1.81,6.11-.43,1.9-1.38,3.76-2.43,4.87-1.21,1.28-2.64,2.47-4.17,3.56-1.92,1.38-3.99,2.61-5.98,3.75-.57.33-1.14.65-1.69.96-1.82,1.02-3.66,1.98-5.52,2.93-.16.08-.32.16-.48.24-3.15,1.59-6.33,3.1-9.49,4.65-.8.39-2.17,1.82-2.17.21Z"/>
      <path class="cls-16" d="M319.3,246c3.44-9.67,8.54-18.24,13.74-26.87.69-1.14,1.37-2.28,2.06-3.43.57-.95,1.22-2.01,1.92-3.13,1.42-2.3,2.99-4.89,4.31-7.52,1.69-3.36,2.97-6.79,2.98-9.74,0-2.19-.36-4.09-1.03-5.73-.63-1.57-1.55-2.91-2.67-4.05-2.14-2.19-5.06-3.67-8.29-4.69,1.6-1.03,3.09-2.27,4.43-3.75,8.29-9.09,7.64-23.18-1.45-31.48-9.09-8.29-23.19-7.64-31.48,1.45s-7.64,23.19,1.45,31.48c.34.31.68.6,1.03.88.07.13.18.28.35.45.12.13.28.27.46.43.19.16.42.29.66.42h0s0,0,0,0c.1.05.19.1.28.15h0s.01.01.01.01h0c.2.11.39.22.55.34.09.07.17.14.23.22.14.16.21.36.24.59h0s0,0,0,0c.08.63-.19,1.44-.38,2.11h0c-.03.12-.06.23-.08.33-.03.1-.05.2-.06.29-.08.48-.15.98-.21,1.48,0,0,0,.02,0,.02-.24,2.12-.28,4.45-.18,6.85,0,.04,0,.08,0,.12.08,1.78.23,3.59.42,5.41.05.49.11.98.16,1.48.36,3.09.83,6.13,1.26,8.88.15.96.29,1.88.42,2.76.06.4.12.79.19,1.19.53,3.29,1.16,6.6,1.62,9.93.7,5.01,1.01,10.07-.03,15.15-.22,1.05-.87,2.02-.52,3.12,1.38,1.37,2.92,2.46,4.42,3.66.23.19.37.49.61.67.71.55,1.91,1.62,2.57.49ZM310.61,177.89c-.98-.6-1.92-1.31-2.81-2.11-7.55-6.88-8.09-18.62-1.21-26.16s18.62-8.09,26.16-1.21c2.24,2.04,3.86,4.5,4.85,7.16.07.19.14.37.2.56,2.09,6.18.86,13.29-3.84,18.45-1.89,2.08-4.15,3.62-6.59,4.63-5.39,2.23-11.65,1.82-16.76-1.31ZM319.24,222.41c-.36-.59-.09-1.12-.15-1.72-.09-.82-.18-1.65-.28-2.5-.38-3.3-.85-6.8-1.22-10.35-.17-1.58-.32-3.18-.43-4.77-.11-1.49-.19-2.97-.22-4.44-.08-3.24.05-6.4.51-9.36.04-.24.09-.55.17-.91.15-.7.36-1.56.59-2.29.2-.6.41-1.11.62-1.38.08-.11.59-.21,1.13-.3.27-.04.56-.08.8-.11.25-.03.46-.05.57-.06.38-.03.75-.06,1.14-.09h0c.52-.04,1.04-.08,1.56-.12.2-.01.4-.03.59-.04,2.09-.16,4.18-.31,6.26-.47,2.33-.18,3.91,1.86,4.71,4.29.61,1.85.76,3.93.44,5.43-.37,1.73-.98,3.48-1.72,5.21-.93,2.17-2.06,4.3-3.18,6.3-.32.58-.64,1.14-.95,1.69-1.03,1.81-2.11,3.59-3.2,5.36-.1.15-.19.3-.29.46-1.87,2.99-3.81,5.93-5.71,8.89-.48.75-.92,2.68-1.75,1.3Z"/>
      <path class="cls-18" d="M374,226.81c-3.62-9.6-5.26-19.44-6.86-29.38-.21-1.31-.42-2.63-.64-3.94-.18-1.1-.36-2.32-.56-3.63-.4-2.67-.88-5.66-1.57-8.52-.88-3.66-2.12-7.1-4.02-9.36-1.41-1.68-2.91-2.89-4.49-3.71-1.5-.79-3.06-1.22-4.65-1.37-3.05-.29-6.23.46-9.36,1.77.56-1.82.89-3.73.96-5.72.46-12.3-9.14-22.64-21.44-23.09s-22.64,9.14-23.09,21.44,9.14,22.64,21.44,23.09c.45.02.91.02,1.36,0,.14.05.32.1.56.12.18.02.39.03.63.03.25,0,.51-.05.77-.1h0s0,0,0,0c.11-.02.2-.05.31-.07h0s.01,0,.01,0h0c.22-.05.43-.09.63-.1.11,0,.22,0,.32.02.21.03.4.14.57.3h0s0,0,0,0c.46.43.79,1.22,1.08,1.85h0c.05.11.1.21.15.31.05.09.09.18.14.26.25.42.51.84.8,1.27,0,0,0,.01.01.02,1.18,1.78,2.66,3.57,4.29,5.34.03.03.05.06.08.09,1.21,1.31,2.49,2.6,3.81,3.86.36.34.72.68,1.08,1.02,2.27,2.12,4.59,4.14,6.7,5.97.73.64,1.44,1.25,2.11,1.84.3.26.6.53.91.79,2.52,2.17,5.14,4.29,7.65,6.54,3.77,3.37,7.28,7.04,9.76,11.59.51.94.64,2.11,1.62,2.72,1.94.16,3.82-.01,5.73-.06.3,0,.6.13.9.12.89-.04,2.51,0,2.28-1.29ZM323.37,180.43c-1.14.17-2.31.25-3.51.2-10.2-.38-18.2-8.99-17.82-19.19s8.99-18.2,19.19-17.82c3.02.11,5.85.95,8.33,2.33.17.1.34.19.51.3,5.59,3.37,9.24,9.6,8.98,16.56-.1,2.81-.83,5.45-2.04,7.79-2.68,5.18-7.72,8.92-13.64,9.83ZM358.71,208.84c-.65-.22-.79-.79-1.23-1.21-.6-.57-1.2-1.15-1.83-1.73-2.42-2.27-5.04-4.64-7.62-7.12-1.15-1.1-2.29-2.22-3.41-3.37-1.04-1.07-2.06-2.15-3.04-3.25-2.15-2.42-4.1-4.92-5.65-7.47-.13-.2-.29-.48-.46-.8-.34-.63-.73-1.42-1.03-2.14-.24-.58-.4-1.11-.42-1.46,0-.14.31-.54.67-.96.18-.21.37-.42.54-.6.17-.19.32-.33.39-.41.27-.27.54-.53.81-.8h0c.37-.37.74-.74,1.11-1.1.14-.14.28-.28.43-.42,1.49-1.47,2.99-2.93,4.48-4.4,1.66-1.64,4.19-1.11,6.37.23,1.66,1.02,3.12,2.51,3.84,3.86.83,1.56,1.5,3.29,2.05,5.09.69,2.26,1.2,4.62,1.64,6.86.13.65.25,1.29.37,1.91.38,2.05.71,4.1,1.01,6.16.02.18.05.36.07.53.5,3.49.92,6.99,1.38,10.48.11.88,1.03,2.64-.49,2.12Z"/>
    </g>
    <path class="cls-2" d="M232.8,164.11c9.86,2.86,18.71,7.45,27.63,12.12,1.18.62,2.36,1.24,3.54,1.85.98.51,2.08,1.1,3.24,1.73,2.38,1.28,5.06,2.69,7.76,3.85,3.46,1.49,6.95,2.56,9.9,2.4,2.19-.12,4.06-.6,5.66-1.37,1.53-.73,2.81-1.72,3.88-2.9,2.06-2.27,3.37-5.26,4.19-8.56,1.12,1.54,2.45,2.95,4,4.2,9.57,7.74,23.6,6.25,31.34-3.32,7.74-9.57,6.25-23.6-3.32-31.34s-23.6-6.25-31.34,3.32c-.29.35-.56.72-.82,1.08-.13.08-.27.2-.43.38-.12.13-.26.29-.4.49-.15.2-.26.44-.38.68h0s0,0,0,0c-.04.1-.08.19-.13.29h0s0,.02,0,.02h0c-.09.21-.19.4-.3.57-.06.09-.13.17-.2.25-.15.15-.35.23-.58.28h0s0,0,0,0c-.62.12-1.45-.1-2.13-.25h0c-.11-.03-.23-.05-.33-.07-.1-.02-.2-.04-.29-.04-.49-.05-.98-.09-1.49-.12,0,0-.02,0-.02,0-2.13-.12-4.45-.01-6.85.23-.04,0-.08,0-.12.01-1.77.18-3.57.44-5.37.74-.49.08-.98.17-1.46.25-3.06.55-6.07,1.19-8.79,1.78-.95.2-1.86.4-2.73.59-.39.08-.78.17-1.17.26-3.25.72-6.52,1.55-9.82,2.21-4.96,1-9.99,1.6-15.13.87-1.06-.15-2.07-.75-3.15-.34-1.29,1.46-2.28,3.06-3.39,4.62-.17.24-.47.4-.63.64-.5.74-1.5,2-.34,2.6ZM300.27,151.39c.54-1.02,1.19-2,1.94-2.93,6.42-7.94,18.1-9.18,26.05-2.76s9.18,18.11,2.76,26.05c-1.9,2.35-4.27,4.12-6.86,5.27-.18.08-.36.16-.55.23-6.05,2.46-13.22,1.64-18.64-2.74-2.18-1.77-3.86-3.93-5.01-6.31-2.54-5.25-2.51-11.53.31-16.81ZM256.35,162.64c.57-.39,1.11-.16,1.71-.25.81-.14,1.64-.28,2.48-.43,3.27-.58,6.74-1.25,10.26-1.83,1.57-.26,3.16-.5,4.74-.71,1.48-.19,2.96-.36,4.42-.48,3.23-.27,6.39-.33,9.37-.04.24.02.56.06.92.11.71.1,1.58.27,2.32.46.61.16,1.13.35,1.42.54.11.08.25.57.36,1.11.06.27.11.55.16.79.05.25.08.45.09.56.05.38.1.75.15,1.13h0c.07.52.14,1.03.22,1.55.03.2.05.39.08.59.28,2.07.55,4.15.84,6.22.32,2.31-1.62,4.02-4,4.96-1.81.72-3.88.99-5.39.76-1.74-.27-3.53-.77-5.3-1.41-2.22-.8-4.42-1.8-6.47-2.8-.6-.29-1.18-.57-1.75-.85-1.87-.92-3.71-1.89-5.54-2.88-.16-.09-.31-.17-.47-.26-3.1-1.69-6.15-3.45-9.21-5.18-.77-.44-2.73-.76-1.41-1.67Z"/>
    <g>
      <path class="cls-21" d="M445.02,187.47c10.21-1.01,20.14-.05,30.16.97,1.32.13,2.65.27,3.98.4,1.1.11,2.34.25,3.65.4,2.68.3,5.7.62,8.63.69,3.76.1,7.4-.21,10.08-1.46,1.98-.93,3.54-2.07,4.74-3.37,1.15-1.24,1.97-2.64,2.52-4.14,1.07-2.87,1.17-6.14.71-9.5,1.61,1.01,3.38,1.83,5.28,2.41,11.76,3.62,24.23-2.97,27.85-14.74s-2.98-24.23-14.74-27.85-24.23,2.98-27.85,14.74c-.13.43-.25.87-.36,1.31-.09.12-.18.29-.26.51-.07.17-.13.37-.19.6-.06.24-.08.5-.1.77h0s0,0,0,0c0,.11,0,.21-.01.32h0s0,.02,0,.02h0c-.01.23-.03.45-.07.64-.03.11-.06.21-.1.3-.09.19-.24.35-.43.47h0s0,0,0,0c-.53.34-1.39.44-2.07.56h0c-.12.02-.23.04-.33.06-.1.02-.2.04-.28.07-.47.13-.95.28-1.43.45,0,0-.02,0-.02,0-2.02.68-4.14,1.65-6.27,2.76-.03.02-.07.04-.11.05-1.57.83-3.15,1.74-4.71,2.69-.42.26-.84.52-1.26.78-2.64,1.64-5.19,3.36-7.5,4.92-.8.54-1.58,1.07-2.32,1.56-.33.22-.66.45-.99.67-2.75,1.88-5.47,3.86-8.29,5.7-4.24,2.77-8.68,5.21-13.72,6.43-1.04.25-2.2.08-3.05.86-.65,1.83-.98,3.69-1.42,5.55-.07.29-.28.54-.35.83-.19.87-.65,2.42.65,2.54ZM502.92,150.56c.13-1.15.36-2.3.71-3.44,3.01-9.76,13.39-15.26,23.15-12.25,9.76,3,15.25,13.39,12.25,23.15-.89,2.89-2.43,5.41-4.41,7.44-.14.14-.28.28-.42.42-4.7,4.53-11.66,6.44-18.32,4.39-2.68-.83-5.05-2.21-7-3.99-4.31-3.93-6.62-9.76-5.96-15.72ZM466.33,177.35c.38-.57.97-.56,1.49-.87.7-.43,1.42-.87,2.15-1.32,2.82-1.75,5.79-3.67,8.84-5.52,1.36-.83,2.74-1.64,4.14-2.42,1.3-.73,2.61-1.44,3.92-2.09,2.9-1.45,5.81-2.68,8.68-3.53.23-.07.54-.15.9-.24.7-.17,1.57-.34,2.33-.44.62-.08,1.18-.1,1.52-.02.13.03.44.44.75.89.16.23.31.47.44.68.14.21.24.39.3.49.19.33.38.66.56.99h0c.26.45.52.91.78,1.36.1.17.2.35.29.52,1.03,1.82,2.06,3.65,3.09,5.47,1.15,2.03-.01,4.33-1.87,6.09-1.41,1.34-3.23,2.37-4.72,2.71-1.72.4-3.57.6-5.45.66-2.36.09-4.77-.03-7.05-.19-.66-.04-1.31-.09-1.94-.14-2.08-.16-4.15-.37-6.21-.61-.18-.02-.36-.04-.54-.07-3.5-.42-6.99-.91-10.48-1.38-.88-.12-2.82.31-1.92-1.02Z"/>
      <path class="cls-22" d="M467.75,260.18c-.26-.45-.52-.91-.78-1.36h0c-.19-.34-.37-.67-.56-.99-.06-.09-.16-.27-.3-.49-.13-.21-.28-.45-.44-.68.65,1.42,1.44,2.78,2.37,4.03-.1-.17-.2-.35-.29-.52Z"/>
      <path class="cls-23" d="M477.25,223.67c7.95-6.49,16.75-11.19,25.66-15.88,1.18-.62,2.35-1.24,3.53-1.87.98-.52,2.09-1.08,3.26-1.69,2.4-1.23,5.09-2.64,7.57-4.2,3.19-2,6.05-4.27,7.59-6.79,1.14-1.87,1.81-3.68,2.08-5.44.27-1.67.18-3.29-.19-4.84-.7-2.98-2.43-5.76-4.67-8.31,1.9-.05,3.82-.35,5.73-.91,11.8-3.49,18.54-15.88,15.05-27.69s-15.89-18.54-27.69-15.05c-11.8,3.49-18.54,15.89-15.05,27.69.13.44.27.87.43,1.29,0,.15.01.34.07.57.04.18.09.38.17.61.08.23.21.46.34.7h0s0,0,0,0c.06.09.11.18.17.27h0s0,.02,0,.02h0c.12.2.22.39.29.58.04.11.07.21.09.31.04.21,0,.42-.1.63h0s0,0,0,0c-.26.58-.91,1.14-1.41,1.61h0c-.09.08-.17.16-.24.24-.07.07-.14.14-.2.21-.32.37-.63.76-.94,1.16,0,0-.01.01-.01.02-1.31,1.69-2.54,3.66-3.7,5.77-.02.03-.04.07-.06.11-.85,1.56-1.66,3.19-2.44,4.84-.21.45-.42.9-.62,1.35-1.29,2.83-2.46,5.67-3.52,8.25-.37.9-.73,1.76-1.07,2.58-.15.37-.31.74-.46,1.11-1.25,3.08-2.43,6.24-3.75,9.34-2,4.65-4.35,9.14-7.87,12.95-.73.79-1.79,1.28-2.06,2.4.47,1.89,1.23,3.61,1.89,5.41.1.28.06.61.17.89.32.83.8,2.38,1.95,1.75ZM505.05,160.89c-.53-1.03-.97-2.11-1.31-3.26-2.9-9.79,2.71-20.12,12.51-23.01s20.12,2.71,23.01,12.51c.86,2.9.97,5.85.45,8.64-.04.19-.08.39-.12.58-1.41,6.37-6.15,11.82-12.83,13.8-2.69.8-5.43.95-8.04.55-5.77-.88-10.91-4.47-13.67-9.8ZM489.4,203.44c0-.69.5-1,.76-1.55.35-.75.7-1.51,1.06-2.29,1.38-3.02,2.79-6.26,4.31-9.49.67-1.44,1.38-2.88,2.1-4.31.68-1.33,1.38-2.64,2.11-3.91,1.61-2.81,3.35-5.45,5.28-7.74.15-.18.37-.43.62-.69.49-.52,1.12-1.15,1.7-1.65.48-.41.93-.74,1.25-.86.13-.05.61.12,1.12.33.26.1.52.22.74.32.23.1.42.19.52.24.34.17.68.34,1.02.51h0c.47.23.93.47,1.4.7.18.09.36.18.53.27,1.87.94,3.73,1.9,5.6,2.84,2.08,1.05,2.39,3.62,1.81,6.11-.43,1.9-1.38,3.76-2.43,4.87-1.21,1.28-2.64,2.47-4.17,3.56-1.92,1.38-3.99,2.61-5.98,3.75-.57.33-1.14.65-1.69.96-1.82,1.02-3.66,1.98-5.52,2.93-.16.08-.32.16-.48.24-3.15,1.59-6.33,3.1-9.49,4.65-.8.39-2.17,1.82-2.17.21Z"/>
      <path class="cls-24" d="M521.8,237.36c3.44-9.67,8.54-18.24,13.74-26.87.69-1.14,1.37-2.28,2.06-3.43.57-.95,1.22-2.01,1.92-3.13,1.42-2.3,2.99-4.89,4.31-7.52,1.69-3.36,2.97-6.79,2.98-9.74,0-2.19-.36-4.09-1.03-5.73-.63-1.57-1.55-2.91-2.67-4.05-2.14-2.19-5.06-3.67-8.29-4.69,1.6-1.03,3.09-2.27,4.43-3.75,8.29-9.09,7.64-23.18-1.45-31.48-9.09-8.29-23.19-7.64-31.48,1.45s-7.64,23.19,1.45,31.48c.34.31.68.6,1.03.88.07.13.18.28.35.45.12.13.28.27.46.43.19.16.42.29.66.42h0s0,0,0,0c.1.05.19.1.28.15h0s.01.01.01.01h0c.2.11.39.22.55.34.09.07.17.14.23.22.14.16.21.36.24.59h0s0,0,0,0c.08.63-.19,1.44-.38,2.11h0c-.03.12-.06.23-.08.33-.03.1-.05.2-.06.29-.08.48-.15.98-.21,1.48,0,0,0,.02,0,.02-.24,2.12-.28,4.45-.18,6.85,0,.04,0,.08,0,.12.08,1.78.23,3.59.42,5.41.05.49.11.98.16,1.48.36,3.09.83,6.13,1.26,8.88.15.96.29,1.88.42,2.76.06.4.12.79.19,1.19.53,3.29,1.16,6.6,1.62,9.93.7,5.01,1.01,10.07-.03,15.15-.22,1.05-.87,2.02-.52,3.12,1.38,1.37,2.92,2.46,4.42,3.66.23.19.37.49.61.67.71.55,1.91,1.62,2.57.49ZM513.1,169.25c-.98-.6-1.92-1.31-2.81-2.11-7.55-6.88-8.09-18.62-1.21-26.16s18.62-8.09,26.16-1.21c2.24,2.04,3.86,4.5,4.85,7.16.07.19.14.37.2.56,2.09,6.18.86,13.29-3.84,18.45-1.89,2.08-4.15,3.62-6.59,4.63-5.39,2.23-11.65,1.82-16.76-1.31ZM521.73,213.76c-.36-.59-.09-1.12-.15-1.72-.09-.82-.18-1.65-.28-2.5-.38-3.3-.85-6.8-1.22-10.35-.17-1.58-.32-3.18-.43-4.77-.11-1.49-.19-2.97-.22-4.44-.08-3.24.05-6.4.51-9.36.04-.24.09-.55.17-.91.15-.7.36-1.56.59-2.29.2-.6.41-1.11.62-1.38.08-.11.59-.21,1.13-.3.27-.04.56-.08.8-.11.25-.03.46-.05.57-.06.38-.03.75-.06,1.14-.09h0c.52-.04,1.04-.08,1.56-.12.2-.01.4-.03.59-.04,2.09-.16,4.18-.31,6.26-.47,2.33-.18,3.91,1.86,4.71,4.29.61,1.85.76,3.93.44,5.43-.37,1.73-.98,3.48-1.72,5.21-.93,2.17-2.06,4.3-3.18,6.3-.32.58-.64,1.14-.95,1.69-1.03,1.81-2.11,3.59-3.2,5.36-.1.15-.19.3-.29.46-1.87,2.99-3.81,5.93-5.71,8.89-.48.75-.92,2.68-1.75,1.3Z"/>
      <path class="cls-17" d="M576.5,218.17c-3.62-9.6-5.26-19.44-6.86-29.38-.21-1.31-.42-2.63-.64-3.94-.18-1.1-.36-2.32-.56-3.63-.4-2.67-.88-5.66-1.57-8.52-.88-3.66-2.12-7.1-4.02-9.36-1.41-1.68-2.91-2.89-4.49-3.71-1.5-.79-3.06-1.22-4.65-1.37-3.05-.29-6.23.46-9.36,1.77.56-1.82.89-3.73.96-5.72.46-12.3-9.14-22.64-21.44-23.09-12.3-.46-22.64,9.14-23.09,21.44s9.14,22.64,21.44,23.09c.45.02.91.02,1.36,0,.14.05.32.1.56.12.18.02.39.03.63.03.25,0,.51-.05.77-.1h0s0,0,0,0c.11-.02.2-.05.31-.07h0s.01,0,.01,0h0c.22-.05.43-.09.63-.1.11,0,.22,0,.32.02.21.03.4.14.57.3h0s0,0,0,0c.46.43.79,1.22,1.08,1.85h0c.05.11.1.21.15.31.05.09.09.18.14.26.25.42.51.84.8,1.27,0,0,0,.01.01.02,1.18,1.78,2.66,3.57,4.29,5.34.03.03.05.06.08.09,1.21,1.31,2.49,2.6,3.81,3.86.36.34.72.68,1.08,1.02,2.27,2.12,4.59,4.14,6.7,5.97.73.64,1.44,1.25,2.11,1.84.3.26.6.53.91.79,2.52,2.17,5.14,4.29,7.65,6.54,3.77,3.37,7.28,7.04,9.76,11.59.51.94.64,2.11,1.62,2.72,1.94.16,3.82-.01,5.73-.06.3,0,.6.13.9.12.89-.04,2.51,0,2.28-1.29ZM525.87,171.79c-1.14.17-2.31.25-3.51.2-10.2-.38-18.2-8.99-17.82-19.19.38-10.2,8.99-18.2,19.19-17.82,3.02.11,5.85.95,8.33,2.33.17.1.34.19.51.3,5.59,3.37,9.24,9.6,8.98,16.56-.1,2.81-.83,5.45-2.04,7.79-2.68,5.18-7.72,8.92-13.64,9.83ZM561.21,200.2c-.65-.22-.79-.79-1.23-1.21-.6-.57-1.2-1.15-1.83-1.73-2.42-2.27-5.04-4.64-7.62-7.12-1.15-1.1-2.29-2.22-3.41-3.37-1.04-1.07-2.06-2.15-3.04-3.25-2.15-2.42-4.1-4.92-5.65-7.47-.13-.2-.29-.48-.46-.8-.34-.63-.73-1.42-1.03-2.14-.24-.58-.4-1.11-.42-1.46,0-.14.31-.54.67-.96.18-.21.37-.42.54-.6.17-.19.32-.33.39-.41.27-.27.54-.53.81-.8h0c.37-.37.74-.74,1.11-1.1.14-.14.28-.28.43-.42,1.49-1.47,2.99-2.93,4.48-4.4,1.66-1.64,4.19-1.11,6.37.23,1.66,1.02,3.12,2.51,3.84,3.86.83,1.56,1.5,3.29,2.05,5.09.69,2.26,1.2,4.62,1.64,6.86.13.65.25,1.29.37,1.91.38,2.05.71,4.1,1.01,6.16.02.18.05.36.07.53.5,3.49.92,6.99,1.38,10.48.11.88,1.03,2.64-.49,2.12Z"/>
    </g>
    <circle class="cls-20" cx="86.54" cy="161.14" r="13.28"/>
    <circle class="cls-19" cx="318.82" cy="160.62" r="13.28"/>
    <circle class="cls-12" cx="522.2" cy="151.85" r="13.28"/>
    <g>
      <path class="cls-1" d="M741.3,130.94c-8.88-.38-17.27-2.42-25.73-4.52-1.12-.28-2.24-.56-3.36-.83-.93-.23-1.97-.5-3.08-.79-2.26-.59-4.8-1.23-7.32-1.65-3.21-.54-6.37-.73-8.82.02-1.81.55-3.29,1.34-4.48,2.31-1.14.92-2.01,2.02-2.67,3.24-1.27,2.33-1.75,5.12-1.77,8.06-1.26-1.06-2.67-1.98-4.23-2.71-9.63-4.54-21.13-.42-25.67,9.22s-.41,21.13,9.22,25.67c9.64,4.54,21.13.41,25.67-9.22.17-.36.32-.72.47-1.08.09-.09.19-.22.28-.4.08-.13.16-.3.24-.49.08-.2.13-.42.18-.65h0s0,0,0,0c.02-.09.03-.18.05-.27h0s0-.02,0-.02h0c.04-.2.08-.38.14-.54.04-.09.07-.17.12-.25.1-.16.25-.27.43-.35h0s0,0,0,0c.5-.22,1.24-.21,1.84-.23h0c.1,0,.2,0,.29-.01.09,0,.18-.01.25-.02.42-.06.85-.12,1.28-.21,0,0,.01,0,.02,0,1.82-.34,3.75-.9,5.71-1.6.03-.01.06-.02.1-.03,1.45-.52,2.91-1.1,4.37-1.73.39-.17.79-.34,1.18-.51,2.46-1.09,4.86-2.25,7.03-3.3.76-.37,1.48-.72,2.18-1.05.31-.15.62-.3.94-.46,2.59-1.27,5.16-2.64,7.8-3.87,3.97-1.86,8.07-3.4,12.54-3.83.93-.09,1.9.2,2.72-.36.78-1.49,1.29-3.04,1.9-4.58.1-.24.31-.43.4-.67.27-.73.85-1.99-.25-2.25ZM687.17,155.49c-.25.97-.59,1.92-1.03,2.86-3.77,8-13.34,11.43-21.34,7.66s-11.43-13.34-7.66-21.34c1.12-2.37,2.74-4.34,4.69-5.84.14-.1.27-.21.41-.3,4.58-3.31,10.78-4.09,16.24-1.52,2.2,1.04,4.05,2.51,5.51,4.27,3.22,3.89,4.47,9.18,3.19,14.2ZM721.8,137.01c-.4.45-.9.36-1.38.56-.65.28-1.32.57-2,.87-2.63,1.16-5.41,2.43-8.25,3.65-1.27.54-2.55,1.07-3.84,1.57-1.2.47-2.41.91-3.62,1.31-2.66.89-5.31,1.59-7.87,1.96-.21.03-.48.06-.8.09-.62.06-1.38.1-2.05.09-.54,0-1.02-.06-1.3-.17-.11-.04-.33-.43-.53-.86-.11-.21-.21-.44-.29-.63-.09-.2-.16-.37-.19-.45-.12-.3-.24-.61-.36-.92h0c-.17-.42-.33-.84-.5-1.26-.06-.16-.13-.32-.19-.48-.66-1.68-1.32-3.38-1.98-5.06-.74-1.88.54-3.71,2.35-4.99,1.38-.98,3.06-1.63,4.38-1.75,1.52-.13,3.13-.07,4.75.1,2.03.22,4.08.61,6.02,1.02.56.12,1.11.24,1.64.36,1.76.39,3.51.83,5.25,1.29.15.04.3.08.45.12,2.95.79,5.88,1.64,8.81,2.46.74.21,2.45.08,1.52,1.11Z"/>
      <circle class="cls-25" cx="671.61" cy="150.65" r="13.28"/>
    </g>
    <text class="cls-27" transform="translate(727.71 55.88)"><tspan x="0" y="0">1</tspan></text>
    <text class="cls-27" transform="translate(525.9 55.88)"><tspan x="0" y="0">2</tspan></text>
    <text class="cls-27" transform="translate(324.09 55.88)"><tspan x="0" y="0">3</tspan></text>
    <text class="cls-27" transform="translate(84.86 42.19)"><tspan x="0" y="0">4</tspan></text>
  </g>
</svg>